<svg xmlns="http://www.w3.org/2000/svg" width="3000" height="2000"><path fill="#FF1A6D" d="M1197.66 685.758c14.79.42 28.54 7.3 39.34 17.24 4.24 4.93 5.25 9.36 4.94 15.75-1.2 13.27-7.53 24.8-13.82 36.3-2.64 4.86-4.93 9.87-7.12 14.95 6.25-.52 11.99-1.71 18.05-3.3 3.98-.94 7.89-1.31 11.95-1.7l2-1c6.89-1.41 13.81-2.25 20.82-2.75 2.18-.25 2.18-.25 4.18-1.25 2.56-.31 5.12-.51 7.69-.72 2.31-.28 2.31-.28 4.31-1.28 31.68-6.32 31.68-6.32 42 0 3.52 2.82 6.37 5.75 8 10 .2 3.02.2 3.02.12 6.25-.01 1.08-.03 2.16-.05 3.27-.13 4.76-3.72 9.02-6.87 12.43-9.58 8.84-20.6 10.77-33.22 11.76-2.84.28-5.6.7-8.42 1.2-7.04 1.2-14.1 2.16-21.19 3.09q-.975.135-1.98.27c-8.51 1.13-17.03 2.17-25.56 3.08-17.24 1.86-17.24 1.86-20.83 3.65-1.52.16-3.04.28-4.56.38-5.14.45-9.64 1.78-14.44 3.62-4.28 8.86-7.85 17.7-11 27h-2c-.1.64-.21 1.28-.31 1.94-.93 4.13-2.31 8.07-3.69 12.06h-2c-.06.34-.06.34-.35 2.06-.76 3.43-1.85 6.64-3.03 9.94-.42 1.2-.84 2.39-1.27 3.63-1.22 3.05-2.67 5.56-4.35 8.37-.99 2.43-1.92 4.85-2.81 7.31-.26.7-.52 1.39-.78 2.11-1.07 2.91-2.13 5.82-3.19 8.73-2.66 7.3-5.38 14.41-9.01 21.3-2.01 4.24-3.43 8.68-4.96 13.11a106 106 0 0 1-3.75 8.94c-1.93 4.1-3.51 8.22-5 12.5s-3.07 8.4-5 12.5c-2.43 5.17-4.34 10.45-6.19 15.85-1.33 3.72-2.78 7.37-4.26 11.04-6.4 15.94-12.15 32.04-17.06 48.51-.75 2.36-1.57 4.62-2.47 6.93-3.96 10.45-5.88 21.77-6.02 32.92l-.06 2.2c.07 5.49 1.62 8.6 4.56 13.05 11.55.56 11.55.56 17-3 .69-.42 1.37-.85 2.08-1.29 5.43-3.45 10.25-7.29 14.92-11.71.53-.5 1.07-1 1.62-1.52 13.09-12.38 23.34-26.04 33.07-41.17.3-.46.3-.46 1.82-2.82 1.49-2.49 1.49-2.49 2.49-5.49h2c.09-.53.19-1.05.28-1.6.96-3.21 2.53-5.9 4.16-8.84 2.1-3.79 4.05-7.49 5.56-11.56h2c.06-.29.06-.29.39-1.78.77-2.8 2.12-5.2 3.44-7.76 2.39-5.02 4.23-10.26 6.17-15.46 2.34-6.23 4.68-12.41 7.5-18.44 2.48-5.31 4.4-10.75 6.29-16.3 1.2-3.22 2.67-6.18 4.21-9.26.54-1.63 1.05-3.28 1.5-4.94 1.2-4.19 2.78-8.05 4.5-12.06.76-2.45 1.47-4.9 2.16-7.37.85-2.67 1.95-5.18 3.08-7.74 1.31-3.24 2.2-6.59 3.13-9.95 1.52-5.34 3.17-10.55 5.13-15.75 2.45-6.63 4.14-13.37 5.71-20.26 2.66-11.34 2.66-11.34 7.98-15.3 6.84-3.96 18.61-2.02 25.93-.07 6.35 2.03 12.14 4.85 18.02 7.95 2.86 1.49 2.86 1.49 5.86 2.49v2c.72.23 1.44.46 2.19.69 5.57 2.6 10.25 8.06 12.9 13.59 4.01 11.99-1.26 23.85-6.09 34.72-2.08 4.92-3.99 9.8-5.44 14.94-1.33 4.61-3.2 8.81-5.24 13.15-1.82 4.03-3.37 8.14-4.91 12.28-1.61 4.14-3.32 8.23-5.03 12.33-2.37 5.67-4.69 11.36-7.01 17.05-.47 1.17-.95 2.34-1.44 3.54-2.4 5.87-4.72 11.76-6.93 17.71-.8 1.97-1.61 3.92-2.44 5.88-.43 1.02-.86 2.05-1.3 3.11-.79 1.88-1.58 3.77-2.37 5.65-2.03 4.96-3.69 9.91-5.17 15.05-.65 2.08-1.4 4.01-2.28 6-1.19 2.74-2.06 5.37-2.86 8.23-.65 2.33-1.33 4.65-2.02 6.97-10.05 34.34-10.05 34.34-3.56 51.11 6.17 2.81 10.91 3.62 17.37 1.38 4.52-1.78 8.7-3.93 12.85-6.42 1.78-.96 1.78-.96 3.78-.96v-2q1.005-.51 2.04-1.05c3.93-2.59 7-5.77 10.27-9.14.65-.65 1.29-1.3 1.96-1.98 1.58-1.6 3.16-3.21 4.73-4.83h2c.27-.57.53-1.14.8-1.73 1.26-2.38 2.69-4.39 4.32-6.52.27-.35.27-.35 1.64-2.14.41-.53.82-1.06 1.24-1.61h2l.8-1.71c1.29-2.46 2.77-4.65 4.39-6.91.62-.88 1.24-1.76 1.88-2.66 1.25-1.76 2.51-3.52 3.77-5.28 3.27-4.59 6.25-9.18 8.91-14.15 1.37-2.5 2.83-4.92 4.31-7.35 2.56-4.22 4.8-8.5 6.94-12.94h2c.13-.57.25-1.15.38-1.74.63-2.29 1.46-4.25 2.48-6.38.37-.79.74-1.57 1.12-2.37l1.21-2.51c.41-.85.81-1.71 1.23-2.59 2.19-4.56 4.41-9.09 6.7-13.6 2.67-5.25 5.02-10.61 7.34-16.02 1.6-3.71 3.29-7.33 5.16-10.91 2.56-4.97 4.31-10.15 6.12-15.42 1.15-3.16 2.45-6.17 3.88-9.21 1.99-4.21 3.43-8.36 4.61-12.86.96-2.97 2.37-5.6 3.77-8.39 5.74-15.24 8.51-31.77 9-48 5.53-4.42 7.45-4.06 13.94-4.12.83-.02 1.66-.04 2.51-.05 16.77-.13 33.15 7.28 45.25 18.73 7.66 8.11 9.45 15.37 9.3 26.44-.15 4.98-1.32 9.28-3.18 13.87-.91 2.37-1.62 4.75-2.32 7.19-1.01 3.44-2.17 6.68-3.64 9.95-1.09 2.53-2.07 5.1-3.05 7.68a570 570 0 0 1-4.74 12.07 455 455 0 0 0-12.09 33.45c-1.56 4.85-3.24 9.49-5.42 14.1-2.32 4.93-4.03 9.96-5.68 15.13-1.58 4.86-3.56 9.4-5.76 14-1.44 3.29-2.43 6.62-3.35 10.08-1.02 3.27-2.41 6.34-3.77 9.48-.87 2.25-1.72 4.5-2.56 6.75-.25.67-.5 1.33-.75 2.01-1.7 4.55-3.38 9.1-5.06 13.66-4.53 12.27-9.1 24.52-13.9 36.69-.78 2.02-1.52 4.04-2.27 6.08-1.12 3-2.4 5.84-3.9 8.69-2.13 4.16-3.9 8.38-5.59 12.75-1.15 2.82-2.5 5.5-3.94 8.19-.93 1.97-1.68 3.92-2.42 5.96-1.49 4.03-3.28 7.83-5.24 11.66-.34.68-.68 1.36-1.04 2.06-1.1 2.17-2.22 4.34-3.33 6.5-.38.74-.75 1.47-1.14 2.23-4.01 7.87-8.05 15.43-13.29 22.56-3.38 4.76-5.98 9.99-8.57 15.21.53.26 1.05.51 1.59.77 3.03 1.55 5.96 3.23 8.91 4.92l1.85 1.06a832 832 0 0 1 9.13 5.3c.53.31.53.31 3.21 1.89.95.57 1.9 1.13 2.88 1.71 2.43 1.35 2.43 1.35 5.43 2.35v2c.52.1 1.04.2 1.57.3 3.28.95 6.22 2.47 9.24 4.01l1.91.97c3.01 1.53 5.99 3.08 8.9 4.78 6.35 3.65 12.98 6.79 19.57 9.97.72.34 1.43.69 2.17 1.05 1.4.68 2.8 1.36 4.21 2.03 3.77 1.85 6.66 3.71 9.43 6.89.87 9.56-3.44 15.18-9.13 22.56-8.14 9.67-18.43 17.01-31.18 18.25-2.23.1-4.46.17-6.69.19-.96.02-1.92.03-2.9.04-15.66-.56-29.69-8.59-43.1-15.96-2.4-1.29-4.84-2.48-7.31-3.64-4.89-2.39-9.37-5.37-13.87-8.4-2.88-1.92-5.36-3.53-8.82-4.04-.06.54-.12 1.07-.19 1.63-1.19 3.48-3.37 5.62-5.81 8.37h-2c-.21.53-.43 1.06-.65 1.61-1.86 3.3-4.39 5.9-6.98 8.64l-1.64 1.76c-1.57 1.67-3.15 3.33-4.73 4.99-.72.77-1.44 1.53-2.18 2.31-7.36 7.59-15.66 14.08-24.39 20.02-1.56 1.07-3.1 2.17-4.61 3.31-11.09 8.23-23.86 14.62-36.85 19.28-3.04 1.11-6 2.36-8.97 3.64-6.21 2.61-12.53 4.6-19 6.44-.73.22-1.46.44-2.21.66-5.52 1.53-11.1 1.94-16.79 2.34l-1 1c-1.04.06-2.07.12-3.14.19-1.37.08-2.74.16-4.11.25l-2.07.12c-5.31.33-5.31.33-7.41.95-3.4.74-6.8.65-10.26.66-.78 0-1.57.01-2.37.01-1.66.01-3.32.01-4.98.01-2.49 0-4.98.02-7.47.04-9.6.03-18.72-.52-28.19-2.23l-1-1c-.88-.16-1.77-.31-2.68-.48-7.1-1.38-13.36-3.13-19.86-6.33-2.21-1.07-4.38-1.9-6.71-2.69-3.5-1.26-6.22-3.07-9.17-5.31-1.58-1.19-1.58-1.19-4.02-2.63-7.03-4.29-12.99-9.5-18.56-15.56-.54-.57-1.07-1.14-1.63-1.72-12.15-14.38-13.45-35.38-12.37-53.28 1.73-15.44 8.43-28.96 18-41l2-3h2l.73-1.7c6.05-10.91 19.11-18.6 29.27-25.3h3v-2c3.06-1.49 6.12-2.96 9.19-4.44.86-.42 1.73-.84 2.62-1.27.84-.4 1.68-.81 2.55-1.22.77-.37 1.53-.75 2.33-1.13 2.42-.98 4.73-1.51 7.31-1.94v-2c.27-.08.27-.08 1.66-.48 4.69-1.38 9.33-2.84 13.95-4.42 6.07-2.06 12.07-3.97 18.39-5.1.86-.16 1.72-.32 2.61-.49 15.75-2.79 31.11-3.85 47.08-3.76.92 0 1.84.01 2.79.01 19.21.07 37.7 1.29 56.52 5.24 1.41.28 2.83.55 4.25.83 10.45 2.02 10.45 2.02 12.75 3.17 1.28.13 2.56.25 3.87.38 5.86.58 11.46 2.1 17.13 3.62.26-.84.51-1.68.78-2.55 1.31-3.7 2.97-7.11 4.78-10.57 3.78-7.25 3.78-7.25 4.44-10.88h2c.12-.71.24-1.42.37-2.15 1.7-7.64 5.47-14.69 9.25-21.47 2.51-4.53 4.2-8.67 5.51-13.65 2.54-7.99 6.77-15.58 10.56-23.04 2.42-4.77 4.41-9.69 6.31-14.69-3.72 3.67-7.29 7.45-10.81 11.31-4.61 5.03-9.32 9.92-14.19 14.69l-2.5 2.56c-10.19 9.94-22.82 19.99-36.44 24.6-2.06.84-2.06.84-4.38 2.33-3.14 1.77-5.98 2.45-9.49 3.2-1.16.25-2.33.5-3.52.76-.88.18-1.76.36-2.67.55l-1 1c-17.21 1.57-33.22 2.01-47.33-9.55-.55-.48-1.1-.96-1.67-1.45-.87-.72-1.73-1.44-2.63-2.19-12.55-14.86-13.5-32.73-12.2-51.27.66-7.37 1.65-14.44 3.83-21.54h-2c-.1.52-.2 1.05-.3 1.58-2.63 9.1-8.28 17.75-13.7 25.42-2 2.98-3.98 5.96-5.91 8.98-5.19 7.74-11.06 14.37-17.65 20.96l-2.4 2.4c-5.07 4.97-10.36 9.41-16.04 13.66-1.08.86-2.17 1.71-3.25 2.56-15.4 10.92-33.45 14.29-51.88 11.75-8.47-1.58-16.28-5.3-23.87-9.31v-2c-.73-.23-1.46-.47-2.22-.71-9.64-4.46-15.36-16.12-18.9-25.62-2.4-7.33-2.33-14.28-2.13-21.92.02-1.34.04-2.68.05-4.03.05-3.24.12-6.48.2-9.72-.96 1.42-1.92 2.83-2.88 4.25-.53.79-1.06 1.58-1.61 2.39a56 56 0 0 0-3.51 6.36h-2c-.29.77-.58 1.53-.88 2.31-1.12 2.69-1.12 2.69-3.12 5.69h-2c-.12.27-.12.27-.75 1.63-1.55 2.94-3.38 5.63-5.25 8.37h-2v2h-2v2h-2l-2 4-4 2v2h-2v2c-2.41 1.94-4.81 3.86-7.23 5.79q-2.505 1.995-4.98 4.02c-10.02 8.06-20.98 14.16-32.79 19.19l-2.38 1.04c-7.72 2.83-14.76 3.36-22.93 3.4-1.07.03-2.13.07-3.23.1-7.96.05-13.46-1.89-20.46-5.54l-3-1v-2c-.62-.14-1.24-.29-1.88-.44-2.12-.56-2.12-.56-4.12-1.56v-2c-.58-.23-1.16-.45-1.75-.69-7.07-4.11-11.01-13.17-13.56-20.6-1.68-6.56-1.82-12.93-1.75-19.65 0-.87.01-1.74.01-2.65.01-2.13.03-4.27.05-6.41l-4 5h-2c-.22.54-.45 1.08-.68 1.64-1.74 3.11-4.03 5.58-6.45 8.17-.49.54-.98 1.07-1.49 1.62-3.9 4.16-7.96 7.98-12.38 11.57-.37.31-.37.31-2.22 1.85-2.56 2.09-5.16 4.13-7.78 6.15-.26.2-.26.2-1.55 1.2-12.76 9.76-26.36 16.36-41.45 21.8l-1.85.78c-4.97 2.04-9.36 2.75-14.71 2.91-.39.02-.39.02-2.36.1q-3.54.135-7.08.21c-.35.01-.35.01-2.13.05-12.64.25-22.97-.65-34.87-5.05v-2c-.73-.12-1.47-.23-2.22-.35-2.79-.65-4.75-1.54-7.22-2.96-.77-.44-1.54-.89-2.33-1.34-2.81-1.7-5.53-3.48-8.23-5.35v-2l-1.66-.62c-3.22-1.9-5.36-4.54-7.72-7.38-.48-.58-.97-1.16-1.47-1.76-6.29-7.69-11.04-15.78-14.15-25.24-.37-1.07-.75-2.14-1.13-3.25-2.97-10.12-3.25-20.09-3.25-30.56v-2.15c.01-23.66.01-23.66 3.38-27.04.1-.97.21-1.94.31-2.94.53-3.72 1.63-7.08 2.88-10.61.86-2.59 1.52-5.18 2.18-7.82 1.6-5.9 3.99-11.14 6.63-16.63.77-1.66 1.54-3.31 2.3-4.97 4.38-9.44 8.82-18.42 14.7-27.03 1.01-1.66 2.01-3.33 3-5 1.32-2 2.66-4 4-6l2-3 6-9h2c.29-.76.58-1.52.87-2.31 1.13-2.69 1.13-2.69 3.13-5.69h2l.81-1.74c6.01-11.41 17.1-20.37 26.19-29.26h2v-2h2v-2h2v-2h2v-2c3.73-2.88 7.47-5.76 11.22-8.63 1.61-1.24 3.22-2.5 4.82-3.75 6.29-4.86 12.71-8.95 19.65-12.78 2.86-1.59 5.65-3.24 8.43-4.96 21.38-12.88 21.38-12.88 31.88-12.88v-2c.39-.09.39-.09 2.38-.58 1.05-.26 2.1-.52 3.18-.79 1.03-.26 2.07-.51 3.13-.78 4.43-1.14 8.83-2.41 13.22-3.7 9.12-2.24 18.04-2.45 27.4-2.46 1.29-.01 2.58-.01 3.9-.02 19.26.15 35.3 6.21 49.54 19.52 11.23 11.9 16.51 25.47 16.69 41.69l.03 2.37c-.09 5.53-1.32 9.67-3.47 14.75-.27.89-.54 1.78-.81 2.69-2.17 4.22-5.69 6.58-9.88 8.62-4.77 1-9.45.85-14.31.69-6.2-5.71-7.32-10.85-8.56-18.87-.13-.78-.25-1.56-.38-2.36-.74-4.58-1.42-9.17-2.06-13.77h-2l-1.06-3.12c-2.28-5.24-6.01-8.59-11.22-10.88-2.23-.77-4.44-1.42-6.72-2-.4-.11-.4-.11-2.44-.69-19.83-2.41-36.31 6.28-51.86 17.64-.7.51-1.39 1.02-2.11 1.54-.62.46-1.24.92-1.88 1.39-1.71 1.12-1.71 1.12-4.71 2.12v2h-2v2c-.46.39-.92.78-1.4 1.18-15.22 13.05-15.22 13.05-17.6 17.82h-2c-.28.59-.55 1.18-.84 1.79-1.09 2.08-2.26 3.77-3.73 5.59-.48.61-.97 1.22-1.47 1.85s-1 1.25-1.52 1.9c-5.32 6.63-5.32 6.63-6.44 8.87h-2c-.14.62-.29 1.24-.44 1.88-.56 2.12-.56 2.12-1.56 4.12h-2c-.14.62-.29 1.24-.44 1.88-.56 2.12-.56 2.12-1.56 4.12h-2c-.09.53-.18 1.06-.28 1.61-.96 3.2-2.57 5.77-4.28 8.64-10.58 18.12-21.29 38.08-25.72 58.65-.62 2.67-1.36 5.16-2.28 7.73-3.27 9.43-3.81 18.92-3.81 28.84-.01 2.03-.04 4.06-.08 6.08-.03 9.51.89 17.61 6.63 25.42.38.35.38.35 2.26 2.09.74.72 1.48 1.43 2.24 2.16 4.23 3.25 8.43 4.11 13.63 4.91 1.07.16 2.14.33 3.24.51.81.12 1.62.24 2.45.36l1-1 3.56-.12c17.43-2.02 32.61-13.8 45.44-24.88.72-.6 1.44-1.21 2.18-1.84 11.79-10.1 20.96-21.58 29.63-34.43l3.45-5.07c5.61-8.27 5.61-8.27 6.74-11.66h2c.13-.57.25-1.15.38-1.74.63-2.3 1.47-4.24 2.51-6.38.38-.79.76-1.57 1.14-2.37.41-.83.81-1.66 1.22-2.51 8.14-17.02 14.45-34.15 18.89-52.49.72-2.94 1.47-5.86 2.36-8.76.2-.64.39-1.29.59-1.95 1.22-2.41 2.94-3.98 4.91-5.8 17.49-.54 17.49-.54 26 3 1.62.45 3.25.89 4.87 1.31 7.74 2.3 15.11 6.29 21.13 11.69v2h2c5.56 9.27 7.98 15.69 5.44 26.36-.5 1.25-1.03 2.49-1.58 3.72-1.34 3.01-2.13 6.17-3.02 9.33-.85 2.62-1.91 5.08-3.01 7.6-1.6 3.84-2.87 7.8-4.21 11.74-2.17 6.32-4.48 12.44-7.37 18.48-2.76 6.11-4.97 12.47-7.25 18.77-.15.41-.15.41-.91 2.46-.76 2.17-1.44 4.34-2.09 6.54-.35 1.13-.7 2.27-1.07 3.43-3.09 10.61-3.36 20.57-2.93 31.57l2 3c7.84.47 13.36.28 20-4 .85-.5 1.7-.99 2.58-1.51 9.28-5.58 16.9-12.77 24.42-20.49h2c.25-.56.49-1.12.75-1.69 1.47-2.71 3.25-4.83 5.25-7.18 6.88-8.29 13.33-17.03 18.87-26.28.91-1.5 1.89-2.95 2.89-4.39 3.07-4.58 5.62-9.48 8.24-14.33.52-.96 1.04-1.91 1.58-2.9 7.96-14.65 7.96-14.65 10.86-22.48 1.6-4.27 3.27-8.49 5.06-12.69 2.35-5.57 4.37-11.23 6.37-16.94.85-2.34 1.73-4.6 2.75-6.87 1.14-2.69 1.97-5.2 2.75-8 1.38-4.77 3.33-9.11 5.44-13.6 1.36-3.02 2.35-6.07 3.34-9.22.9-2.57 1.98-4.97 3.13-7.43 2.8-6.08 5.27-12.27 7.72-18.5 3.68-9.37 7.45-18.69 12.12-27.62 2.12-4.14 3.53-8.45 4.88-12.88h2c.08-.65.16-1.31.25-1.99 1.01-4.06 2.87-7.5 4.81-11.2 3.94-7.55 3.94-7.55 3.94-9.81-2.66.99-5.06 2.04-7.5 3.5-4.04 2.42-6.75 3.5-11.5 3.5v2c-.38.14-.38.14-2.32.81-7.82 2.87-14.98 6.32-22.27 10.33-2.74 1.49-5.48 2.93-8.29 4.3-3.12 1.56-3.12 1.56-4.12 2.56-9.33 0-9.33 0-15-4-2.69-2.88-3.52-5.11-4-9 .52-2.82.52-2.82 1.37-5.69.28-.95.56-1.9.84-2.88.79-2.43.79-2.43 1.79-4.43h2c.24-.57.49-1.14.74-1.72 5.65-10.21 17.27-16.96 27.26-22.28.49-.28.49-.28 2.97-1.69 6.73-3.78 13.37-6.66 20.68-9.12 3.14-1.11 6.09-2.39 9.1-3.81 4.06-1.91 8.03-3.28 12.35-4.49 6.41-1.96 12.64-4.49 18.9-6.89 2.36-4.55 4.43-9 6.16-13.82.97-2.51 2.08-4.93 3.21-7.37 2.37-5.12 4.39-10.33 6.37-15.61 1.19-3.02 2.5-5.95 3.88-8.89 1.95-4.17 3.33-8.29 4.57-12.72 1.24-3.96 2.92-7.71 4.56-11.52 1.22-2.99 2.26-5.99 3.25-9.07 1.99-6.15 4.4-12.08 7-18 .25-.57.25-.57 1.5-3.44 5.24-8.94 11.86-7.89 21.16-7.8m-22.66 538.24c-2.19.15-4.37.27-6.56.38-6.78.45-12.91 1.81-19.44 3.62l-6.06 1.38c-6.03 1.51-11.39 3.87-16.94 6.62-.89.43-1.78.86-2.7 1.3-15.41 7.48-29.86 18.25-36.44 34.53-2.73 10.09-1.51 20.89 3.14 30.17l2 3h2v2h2v2h2v2c3 2 3 2 6 2v2c14.82 7.06 32.09 9.84 48.29 5.37 1.28-.49 2.55-1 3.8-1.55 2.19-.94 4.38-1.59 6.66-2.26 8.75-2.58 17.19-5.22 25.25-9.56v-2c.58-.12 1.15-.24 1.75-.37 8.33-2.32 15.44-8.55 22.25-13.63 2.33-1.67 4.66-3.34 7-5v-2h2v-2l4-2v-2h2v-2l4-2 2-4h2v-2h2v-2h2v-2h2c1.86-2.3 3.71-4.61 5.56-6.93q2.565-3.225 5.16-6.42c.91-1.13 1.81-2.26 2.72-3.4.22-.26.22-.26 1.32-1.6 2.76-3.5 3.87-6.22 4.24-10.65-.83-.18-1.67-.36-2.53-.55-10.31-2.3-10.31-2.3-14.85-3.95-5.34-1.9-10.9-2.81-16.46-3.85-3.16-.65-3.16-.65-5.16-1.65-9.88-1.72-19.73-2.18-29.75-2.19h-3.14c-4.54.04-8.66.25-13.11 1.19M2246.387 642.16c8.45 4.46 16.54 10.43 19.61 19.84.88 8.55.81 16.12-3.31 23.82-1.84 3.46-3.39 6.98-4.95 10.57-3.09 7.06-6.22 13.91-10.39 20.42-2.41 3.91-4.36 8.06-6.35 12.19 9-1 9-1 10-2 .91-.06 1.81-.12 2.74-.18 1.18-.09 2.36-.17 3.58-.26 1.17-.08 2.34-.16 3.55-.24 3.13-.32 3.13-.32 6.13-1.32 2.1-.27 4.21-.51 6.32-.72 1.24-.13 2.48-.25 3.75-.39l7.86-.78c1.24-.13 2.48-.26 3.76-.39 1.14-.12 2.28-.23 3.45-.35 2.86-.37 2.86-.37 5.86-1.37 12.29-.82 23.95-.68 33.75 7.75 3.13 3.03 4.1 4.95 5.25 9.25-.12 7.69-3.13 12.31-7.75 18.25-9.28 7.22-21.19 7.84-32.5 8.5-2.75.25-2.75.25-5.75 1.25-3.4.26-6.79.44-10.19.61-3.15.16-5.8.39-8.81 1.39-1.69.19-3.39.34-5.09.46-1.02.08-2.04.16-3.1.24l-3.31.24c-8.05.62-16.09 1.25-24.12 2.06-.75.07-1.5.14-2.27.21-4.57.48-8.72 1.41-13.11 2.79-4.55 6.64-7.25 13.46-10 21-2.69 7.19-5.51 14.23-8.75 21.19-1.84 4.13-3.39 8.37-4.99 12.61-1.19 3.04-2.5 5.99-3.88 8.95-2.17 4.67-3.85 9.34-5.38 14.25h-2l-.36 2.11c-1.59 7.2-4.66 14.19-8.07 20.7-2.38 4.6-4.15 9.32-5.91 14.18-4.67 12.64-10.18 24.97-15.52 37.33-2.81 6.49-5.43 13-7.92 19.61-1.14 2.87-2.39 5.65-3.72 8.44-1.99 4.29-3.56 8.64-5 13.13-1.4 4.37-2.9 8.6-4.87 12.75-6.97 14.84-11.69 30.73-16.81 46.28-3.82 11.58-3.82 11.58-5.51 16-4.31 11.44-5.67 22.11-5.68 34.28 0 1.14 0 2.28-.01 3.45.12 8.91.12 8.91 2.38 12.74 7.05 1.72 13.51.66 19.8-3.06 5.82-3.8 11.42-7.88 16.2-12.94h2c.25-.56.49-1.12.74-1.7 1.51-2.75 3.37-4.76 5.51-7.05 11.07-12.12 19.75-25.52 24.13-41.44 1.78-6.27 3.86-12.23 6.51-18.2 2.2-5.17 3.44-10.03 4.11-15.61h2c.05-.47.05-.47.32-2.88.96-6.73 3.18-12.99 5.89-19.2 1.43-3.45 2.57-7 3.73-10.55.13-.39.13-.39.79-2.39 1.5-4.56 2.95-9.13 4.34-13.73 1.32-4.39 2.8-8.69 4.37-13 2.66-7.32 4.82-14.75 6.98-22.23.88-3.03 1.79-6.06 2.71-9.08l.88-2.91c.76-2.33 1.58-4.59 2.46-6.87 1.58-4.16 2.77-8.37 3.91-12.66 2.33-8.57 4.89-17.05 7.62-25.5.26-.86.51-1.71.77-2.6 1.66-5.17 3.91-7.36 8.23-10.4 6.48-3.24 17.08-1.3 23.75.69 2.1.73 4.18 1.5 6.25 2.31.96.37 1.92.75 2.91 1.13 10.98 4.65 21.02 11.39 27.09 21.87 4.4 12.3-.61 23.04-5.52 34.45-1.91 4.58-3.66 9.22-5.41 13.86-8.5 22.42-8.5 22.42-12.75 31.5-1.58 3.38-2.82 6.66-3.82 10.25-1.24 4.49-3.15 8.33-5.31 12.44-1.54 3.24-2.43 6.52-3.39 9.96-.84 2.68-1.91 5.12-3.11 7.66-12.45 26.74-31.89 72.17-22.69 101.88 1.67 3.52 2.35 4.5 6 6 10.6.88 19.78-6.62 27.63-13.13 8.67-7.44 16.19-16.27 22.37-25.87 4-6 4-6 5.82-8.69.36-.54.36-.54 2.18-3.31.57-.85 1.13-1.7 1.71-2.58 3.26-5.02 6.18-9.81 8.29-15.42h2c.12-.57.24-1.14.36-1.72.7-2.48 1.68-4.48 2.9-6.74.46-.85.92-1.71 1.39-2.6.49-.91.97-1.82 1.48-2.75 6.41-12.09 12.13-24.33 17.47-36.92 2.49-5.82 5.12-11.57 7.84-17.28 5.15-10.9 9.5-22.01 12.8-33.61.85-2.65 1.9-5.14 3.01-7.69 6.72-15.78 11.81-32.41 14.52-49.35.12-.77.25-1.53.38-2.33.23-1.46.44-2.92.64-4.39.7-4.6 1.96-7.29 5.21-10.62 5.38-3.58 13.84-2.83 20.14-1.57 12.65 3.28 23.72 8.86 34.86 15.57v2h2c5.98 8.26 7.97 15.23 6.52 25.38-.72 3.58-1.58 7.09-2.52 10.62-.32 1.24-.65 2.48-.99 3.75-2.68 9.79-2.68 9.79-4.57 13.94-1.66 3.83-2.69 7.67-3.74 11.71-.78 2.91-1.7 5.76-2.7 8.6h-2c.07.68.13 1.36.19 2.06-.19 3.06-1.06 5.17-2.33 7.92-1.28 3.02-2.13 6.14-3.01 9.3-.86 2.78-1.89 5.48-2.92 8.2-2.09 5.71-3.95 11.5-5.86 17.27-.44 1.31-.87 2.61-1.31 3.92-3.39 10.21-3.39 10.21-4.91 14.83-.35 1.06-.7 2.13-1.07 3.23-.15.46-.15.46-.93 2.83-.71 2.05-1.55 4.07-2.41 6.06-1.53 3.61-2.6 7.22-3.69 10.98-.75 2.4-.75 2.4-2.25 5.84-1.3 3.09-2.17 5.95-3 9.18-1.03 3.99-2.38 6.85-4.5 10.38-.82 2.75-1.53 5.52-2.25 8.3-.94 3.38-2.34 6.48-3.75 9.7-.52 1.66-1.01 3.33-1.5 5-1 3.44-2.16 6.67-3.63 9.94-2.89 6.87-5.16 14.02-7.6 21.06-3.91 11.26-7.98 22.26-12.98 33.08-1.38 3.12-2.59 6.28-3.79 9.48-1.81 4.82-3.86 9.39-6.29 13.93-1.01 2.1-1.83 4.14-2.62 6.33-1.5 4.06-3.31 7.89-5.27 11.74-.35.68-.69 1.36-1.04 2.06-2.8 5.52-5.7 10.99-8.66 16.42-1.77 3.25-3.32 6.49-4.62 9.96 5.79 4.04 11.77 7.65 17.92 11.11 3.08 1.74 6.12 3.51 9.08 5.45 4.05 2.59 8.36 4.62 12.68 6.72 3.63 1.79 6.98 3.75 10.32 6.03 6.41 4.26 13.44 7.18 20.48 10.23.92.4 1.85.81 2.8 1.23.84.35 1.68.71 2.54 1.08 3.54 1.86 4.91 3.34 6.18 7.15.97 7.9-2.75 13.96-7.31 20.12l-1.69 1.88h-2v2h-2v2c-11.9 9.2-23.93 13.19-39 12-15.05-2.56-27.89-9.16-41.16-16.42-2.6-1.42-5.02-2.64-7.84-3.58v-2c-.57-.11-1.14-.22-1.73-.34-2.51-.73-4.33-1.8-6.52-3.22-.7-.46-1.41-.91-2.14-1.38-.53-.35-1.06-.7-1.61-1.06v-2c-3 1-3 1-4.2 3.14-8.97 14.32-22.96 27.79-36.34 37.98-3.1 2.37-6.09 4.87-9.08 7.38-.54.45-1.07.89-1.62 1.35-1.25 1.05-2.5 2.1-3.76 3.15h-3v2c-7.8 5.72-16.31 9.82-25 14-.67.33-1.34.65-2.03.99-6.8 3.32-13.48 6.41-20.83 8.4-3.19.91-6.1 2.27-9.14 3.61-4.32 1.62-8.41 2.45-13 3l-1 1c-5.37 1.31-10.63 2.28-16.15 2.75-1.85.25-1.85.25-3.85 1.25-1.5.09-3 .13-4.51.13-.46 0-.46 0-2.83.01-1.01 0-2.02-.01-3.06-.01s-2.07 0-3.14.01c-2.19 0-4.39-.01-6.58-.01-3.36-.01-6.73 0-10.09.01-2.13 0-4.25-.01-6.38-.01-1.01 0-2.02.01-3.07.01-.93 0-1.86-.01-2.83-.01h-2.5c-2.01-.13-2.01-.13-4.01-1.13-1.53-.22-3.08-.41-4.62-.56-.82-.09-1.64-.17-2.48-.26-.62-.06-1.25-.12-1.9-.18l-1-1c-.89-.17-1.79-.34-2.71-.52-17.29-3.46-31.26-10.85-45.29-21.48l-3-2v-2h-2v-2h-2c-14.35-19.25-18.81-36.27-16.41-60.41.49-3.1 1.38-5.76 2.6-8.64.86-2.06 1.49-4.13 2.13-6.26 6.09-18.33 21.55-37.04 37.68-47.69 1.65-.71 3.31-1.4 5-2v-2l1.55-.85c4.55-2.5 9.04-5.08 13.52-7.71 15.41-8.98 31.6-14.45 48.93-18.44.8-.19 1.6-.38 2.43-.57 42.06-9.61 91.18-7.86 132.16 5.55 3.52 1.05 6.77 1.59 10.41 2.02.19-.56.37-1.11.55-1.69 4.42-13.42 4.42-13.42 7.64-19.56 3.05-5.95 5.42-12.15 7.87-18.36 1.75-4.44 3.54-8.82 5.57-13.14 2.66-5.69 4.79-11.56 6.96-17.45 1.14-3.1 2.35-6.17 3.6-9.24 1.5-3.7 2.79-7.44 4.02-11.24 1.43-4.17 3.12-8.24 4.79-12.32h-2q-.39 1.14-.81 2.31c-1.17 2.66-2.14 3.73-4.19 5.69-.45.76-.91 1.52-1.38 2.31-10.22 17.01-27.23 33.26-44.62 42.69-1.08.64-2.17 1.28-3.29 1.94-13.11 7.51-25.89 9.8-40.71 11.06l-2-1c-1.28-.08-2.55-.17-3.87-.25-8.37-.86-18.17-4.63-24.13-10.75-9.67-12.22-14.5-24.26-14-40-2.88 2.66-5.05 5.72-7.37 8.87-9.23 12.18-19.9 21.73-32.63 30.13l-2.38 1.59c-16.75 10.82-38.27 18.38-58.3 14.72-12.4-3.25-22.35-12.46-28.79-23.28-2.76-5.47-4.8-11.15-6.53-17.03-.18-.61-.37-1.22-.56-1.84-2.1-7.83-1.87-15.93-1.87-23.97-.01-.79-.01-1.58-.01-2.4.02-15.35 1.98-29.81 5.44-44.79.19-.83.38-1.66.57-2.51 1.03-4.53 2.19-9.01 3.43-13.49l1.03-3.82c2.74-9.92 2.74-9.92 4.54-13.87 1.29-2.98 2.12-5.74 2.93-8.87 1.09-4.16 2.58-7.6 4.5-11.44.49-1.7.94-3.41 1.38-5.13 1.32-5.08 3.16-9.75 5.24-14.57 1.56-3.71 2.98-7.46 4.38-11.24.26-.68.51-1.36.77-2.06.5-1.35 1.01-2.7 1.51-4.06 5.09-13.67 5.09-13.67 8.04-20 2.43-5.24 4.56-10.57 6.68-15.94 2.47-6.24 5.01-12.41 7.85-18.49 1.76-3.83 3.34-7.73 4.95-11.63 1.67-3.99 3.42-7.94 5.2-11.88h2l.37-2.13c1.94-8.79 6.12-17.05 9.97-25.14 2.64-5.58 4.93-11.27 7.19-17.01 1.49-3.79 3.06-7.54 4.66-11.28.23-.55.23-.55 1.42-3.32 1.38-3.09 2.86-6.11 4.39-9.12-3.96 1.24-7.91 2.5-11.87 3.75-.56.17-.56.17-3.36 1.05-8.65 2.75-17.04 5.85-25.27 9.7-5.1 2.34-10.24 4.52-15.5 6.5-.54.21-.54.21-3.31 1.25-5.55 1.13-11.05.9-16.69.75-2.9-2.22-4.95-3.93-7-7-.69-8.27 1.48-13.22 6-20h2v-2c10.85-8.57 22.42-14.38 35-20 .41-.19.41-.19 2.44-1.12 4.02-1.84 7.88-3.41 12.19-4.44 3.67-.89 6.94-2.12 10.39-3.64 3.87-1.56 7.9-2.62 11.92-3.74.91-.26 1.83-.51 2.77-.78 8.06-2.26 16.16-4.32 24.29-6.28 2.12-2.12 2.46-3.04 3.28-5.83 1.97-6.16 4.6-12.01 7.22-17.92.49-1.11.98-2.22 1.48-3.36 2.12-4.82 4.29-9.39 7.02-13.89.9-2.13 1.75-4.28 2.57-6.44.2-.54.2-.54 1.25-3.31 1.12-3.06 2.17-6.15 3.18-9.25h2v-5c.44-.64.87-1.28 1.32-1.94 1.37-2.49 2.22-4.51 3.06-7.19 1.41-4.45 3.25-8.6 5.23-12.83 2.09-4.57 3.97-9.22 5.87-13.88 1.87-3.89 3.82-6.99 7.42-9.46 11.61-3.88 25.1 1.41 35.49 6.46m-96.39 575.84c-1.52.1-3.04.18-4.56.25-17.02 1.44-34.81 8.3-49.44 16.75-1.32.68-2.66 1.35-4 2v2c-.67.18-1.35.37-2.04.55-4.23 2.07-7.03 5.21-10.27 8.57-.64.66-1.29 1.32-1.95 2-4.74 4.84-4.74 4.84-4.74 7.88h-2c-5.93 12.19-6.1 20.83-4 34 1.53 2.09 3.08 4.17 4.63 6.25.42.59.85 1.17 1.29 1.78 6.63 8.8 15.15 11.46 25.65 13.22 6.95.84 13.75.77 20.75.5l3.03-.12c9.15-.46 17.3-1.76 25.65-5.63 1.31-.49 2.63-.97 3.94-1.44 18.85-6.98 37.44-18.85 52.06-32.56v-2c.56-.25 1.12-.5 1.69-.75 2.71-1.47 4.95-3.28 7.31-5.25v-2h2v-2h2c4-5 4-5 4-7h2c1.11-1.25 2.21-2.5 3.32-3.75.61-.7 1.23-1.39 1.86-2.11 4.82-5.66 4.82-5.66 4.82-8.14h2c7-10 7-10 7-12-3.16-2.11-5.51-2.76-9.18-3.63-1.09-.26-2.18-.52-3.3-.78-.41-.1-.41-.1-2.52-.59l-1-1c-1.13-.21-2.26-.41-3.43-.62-1.48-.27-2.96-.55-4.44-.82-.75-.13-1.49-.27-2.26-.41-5.64-1.04-5.64-1.04-7.87-2.15-1.81-.2-3.62-.37-5.43-.5-3.13-.23-5.58-.5-8.57-1.5-1.35-.09-2.7-.13-4.05-.13-.81 0-1.63-.01-2.46-.01-.87 0-1.74 0-2.64.01-.9 0-1.8 0-2.73-.01-1.9 0-3.8.01-5.7.01-2.91 0-5.82 0-8.73-.01-1.84 0-3.69.01-5.53.01-.87 0-1.74-.01-2.64-.01-.41 0-.41 0-2.46.01h-2.16c-1.9.13-1.9.13-4.9 1.13"/><path fill="#FF1A6D" d="M2006.891 511.588c3.47.04 6.93.04 10.4.04 10.72.03 21.18.12 31.71 2.37.86.17 1.71.33 2.6.5 4.39.87 8.44 2.19 12.6 3.84 2.23.82 4.45 1.3 6.8 1.66v2l2.19-.12c13.49.58 30.25 14.53 39.81 23.12.75.67 1.51 1.35 2.29 2.04 4.71 4.45 8.67 9.33 12.52 14.52.46.62.91 1.23 1.38 1.86 8.37 11.58 13.35 25.49 14.56 39.7.25 1.88.25 1.88 1.25 3.88.1 1.78.13 3.56.13 5.34 0 1.06 0 2.13.01 3.22-.01 1.12-.01 2.23-.02 3.38.01 1.11.01 2.22.02 3.36-.01 1.07-.01 2.13-.01 3.23v2.96c-.13 2.51-.13 2.51-1.13 5.51-.13 1.73-.23 3.46-.31 5.19-.4 5.2-1.31 10.08-2.57 15.12-.16.66-.32 1.32-.49 2-1.15 4.44-2.78 8.5-4.63 12.69-.72 1.96-1.42 3.92-2.13 5.88-5.87 15.25-14.59 28.74-23.87 42.12h-2c-.13.28-.13.28-.76 1.71-4.79 8.81-13.78 15.74-21.24 22.29h-2v2c-2.71 1.74-5.42 3.47-8.14 5.19-1.58 1-3.15 2.01-4.69 3.06-9.07 5.87-21.04 6.94-31.48 5.13-14.37-3.6-27.59-13.09-35.69-25.38-3.18-5.57-4.54-10.63-5-17 2-4 2-4 4.94-5.18 17.83-7.35 40.82-19.25 49.06-37.82h2q.39-1.08.78-2.19c1.26-2.91 2.77-5.14 4.66-7.68 2.83-3.94 4.88-7.59 6.56-12.13h2c.11-.69.23-1.39.35-2.1.73-3.24 1.81-6.18 3.02-9.27.45-1.15.9-2.29 1.36-3.47.95-2.37 1.92-4.7 2.96-7.03 5.87-13.98 8.56-33.64 3.31-48.13-1.53-3.41-3.23-6.71-5-10-.67-1.33-1.34-2.66-2-4h-2v-2h-2v-2c-.58-.28-1.15-.56-1.75-.85-2.16-1.1-4.22-2.3-6.31-3.52-29.33-16.2-67.61-9-98.38-.69-5.28 1.55-10.2 3.52-15.16 5.91-4.09 1.96-6.79 3.15-11.4 3.15v2c-.52.17-.52.17-3.13 1-9.97 3.74-19.15 10-27.87 16-2.1 1.42-4.21 2.84-6.31 4.25-.5.33-.5.33-2.99 2.02-2.2 1.41-4.34 2.63-6.7 3.73v2c-.49.33-.97.66-1.47 1-9.14 6.48-15.65 15.27-22.53 24-.35.42-.35.42-2.09 2.55-1.65 2.11-2.96 4.1-4.22 6.45-.21.39-.21.39-1.27 2.34l-1.42 2.66c-.59 1.05-1.17 2.11-1.77 3.19-3.22 5.85-6.09 11.49-8.23 17.81-.25.58-.25.58-1.5 3.5-2.47 6.53-3.33 13.64-4.5 20.5-.19 1.01-.38 2.02-.58 3.06-2.13 14.76-.67 34.24 5.68 47.88 1.19 2.72 2.14 5.52 3.15 8.31 2.13 5.6 4.8 10.38 8.14 15.34 1.61 2.41 1.61 2.41 3.48 5.85 13.21 23.42 35.51 43.15 54.4 61.85 2.25 2.23 4.49 4.47 6.73 6.71.9.9 1.79 1.8 2.72 2.72 8.09 8.09 16.18 16.19 24.28 24.28v2h2v2c.6.26 1.19.53 1.81.8 2.32 1.27 3.5 2.43 5.19 4.45.59.7 1.18 1.41 1.79 2.13.73.87 1.46 1.73 2.21 2.62 1.01 1.16 2.03 2.31 3.05 3.47 1.09 1.24 2.17 2.48 3.26 3.72.53.59 1.06 1.19 1.6 1.8 2.77 3.19 4.81 5.9 6.09 10.01h2c10 16 10 16 10 18h2c9.71 19.17 18.3 37.96 23 59 .1.45.1.45.62 2.7 2.93 13.65 3.73 27.06 3.69 40.98 0 2.82.02 5.63.05 8.45.04 10.73-.82 20.45-3.36 30.87q-.765 3.72-1.5 7.44c-.93 4.28-1.96 8.3-3.64 12.34-1.17 3.03-2.08 6.12-3.05 9.22-6 18.53-16.95 35.01-27.81 51h-2c-.22.53-.44 1.05-.67 1.6-8.88 16.03-25.97 28.56-40.33 39.4l-2.7 2.04c-2.74 2.04-5.51 4.01-8.3 5.96-.63.45-1.27.9-1.92 1.36-10.56 7.46-21.25 13.52-33.07 18.75-2.51 1.12-4.98 2.32-7.45 3.52-21.36 9.63-44.65 15.83-67.76 19.42-3.04.47-5.87.98-8.8 1.95-2.14.2-4.29.37-6.44.5-6.13.39-6.13.39-8.51 1-20.58 5.05-60.93 6.21-81.05-.5-1.58-.1-3.17-.18-4.75-.25-9.4-.71-18.51-3.06-27.68-5.17-2.03-.46-4.06-.88-6.1-1.29-23.11-4.76-44.61-14.61-65.47-25.29v-2c-.3-.06-.3-.06-1.79-.37-2.23-.63-3.73-1.43-5.66-2.69-.62-.41-1.24-.81-1.88-1.23-.63-.42-1.27-.84-1.92-1.27s-1.3-.85-1.97-1.29c-1.6-1.04-3.19-2.1-4.78-3.15v-2c-.68-.18-1.36-.37-2.06-.56-3.44-1.68-5.43-3.76-8.05-6.5-1.92-1.97-3.93-3.77-6.02-5.56-3.1-2.68-6.02-5.44-8.87-8.38v-2h-2v-2h-2c-11.77-16-22.79-33.05-27.42-52.64-.57-2.32-1.32-4.49-2.14-6.73-3.76-11.26-3.76-22.94-3.7-34.67.01-2.59 0-5.17-.01-7.76-.01-10.82.33-21 4.5-31.14.87-2.32 1.4-4.64 1.96-7.06 7.74-29.03 30.2-54.88 54.81-71h3v-2c16.76-9.21 38.53-14.91 57.83-11.5 3.56.56 7 .61 10.61.69 10.16.42 18.57 4.21 27.56 8.81v2c.58.23 1.15.46 1.75.69 2.82 1.64 4.33 3.71 6.25 6.31 0 7 0 7-1.41 8.69-3.63 3.24-7.71 5.19-12.03 7.37-1.69.87-3.37 1.73-5.06 2.6-.78.4-1.56.81-2.37 1.22-2.44 1.28-4.8 2.66-7.13 4.12h-3v2l-6 2v2c-6 4-6 4-8 4v2h-2v2h-2v2h-2v2l-4 4h-2c-.25.55-.49 1.11-.75 1.68-1.5 2.77-3.34 5.04-5.31 7.51-7.99 10.34-14.1 22.33-17.94 34.81-.19.57-.19.57-1.13 3.44-3.9 15.9-4.81 33.55-.87 49.56.12.54.12.54.74 3.27 5.35 21.1 17.54 40.98 35.26 53.73v2c.73.27 1.46.53 2.21.81 2.78 1.19 4.99 2.59 7.48 4.32 14.82 9.5 31.39 14.47 48.31 18.87q1.095.3 2.22.6c11.4 2.86 23.42 2.57 35.09 2.53 1.27-.01 2.54-.01 3.85-.02 38.2-.24 73.12-8.94 105.84-29.11h2v-2c6-4 6-4 8-4v-2c8-6 8-6 10-6 .21-.54.41-1.07.63-1.63 2.26-3.9 5.69-6.77 8.94-9.86 3.05-2.96 5.42-5.71 7.43-9.51h2c.23-.68.45-1.36.69-2.06 1.31-2.94 1.31-2.94 3.63-6.14 2.67-3.68 4.79-7.48 6.8-11.55.18-.34.18-.34 1.05-2.1 2.41-4.94 4.15-9.83 5.36-15.21.47-1.94.47-1.94 1.47-2.94 5.66-22.46 6.63-47.41 1-70l-.76-3.43c-1.27-5.49-2.9-10.43-5.24-15.57-.89-2.2-1.76-4.41-2.63-6.62-.42-1.09-.85-2.17-1.29-3.29-.95-2.71-1.61-5.26-2.08-8.09h-2c-.39-.97-.79-1.94-1.19-2.94-5.57-12.89-13.9-24.29-22.81-35.06-.76-.93-1.51-1.86-2.29-2.82-4.17-5.12-8.39-10.19-12.71-15.18v-2h-2v-2h-2c-.41-.47-.82-.95-1.24-1.44-4.53-5.22-9.2-10.29-13.95-15.31-.7-.74-1.39-1.48-2.11-2.24-3.19-3.39-6.4-6.73-9.7-10.01v-2h-2v-2h-2c-.4-.47-.8-.94-1.22-1.43-4.01-4.68-8.24-9.05-12.63-13.38-8.15-8.28-8.15-8.28-8.15-11.19h-2v-2h-2c-11-12.45-11-12.45-11-15h-2v-2h-2c-19.24-23.56-34.23-48.11-41-78-.18-.75-.36-1.49-.54-2.26-1.74-8.1-1.8-16.1-1.78-24.34.01-2.39-.02-4.78-.04-7.17-.04-8.6.61-16.01 3.36-24.23.31-1.41.61-2.83.87-4.25 2.3-10.41 6.12-20.13 10.63-29.75.37-.79.73-1.58 1.11-2.39 2.38-4.94 5.13-9.2 8.39-13.61 1.04-1.98 2.06-3.97 3-6h2c.13-.37.13-.37.82-2.25 1.94-4.51 5.08-7.97 8.18-11.75.8-.98 1.59-1.97 2.41-2.98 10.03-12.23 21.06-23.34 33.59-33.02 1.01-.8 2.03-1.59 3.08-2.42 10.61-8.3 21.34-16.33 33.1-22.95 2.63-1.52 5.12-3.17 7.63-4.88 12.03-7.75 25.69-13.52 38.95-18.83 1.89-.78 3.73-1.68 5.55-2.61 3.17-1.54 6.28-2.4 9.69-3.31 4.85-1.39 9.63-2.81 14.31-4.69 3.25-1.15 5.3-1.63 8.69-1.31v-2c.8-.18 1.6-.36 2.42-.55.55-.12.55-.12 3.33-.76 1.07-.24 2.13-.49 3.23-.74 2.22-.51 4.41-1.05 6.61-1.62 19.63-5.08 39.06-6.96 59.3-6.74M981 532c3.32 3.1 5.72 5.61 6.26 10.24 0 .8 0 1.6.01 2.43v2.71c0 .92-.01 1.85-.02 2.81.01.91.02 1.81.02 2.75-.02 7.8-1.06 14.84-4.35 21.97-1.75 3.96-3.21 8.05-4.74 12.1-.95 2.41-1.97 4.7-3.18 6.99h-2c-.21.68-.41 1.36-.62 2.06-4.82 10.29-14.49 15.05-24.64 19.02-4.58 1.54-9.22 2.24-13.99 2.92-1.08.16-2.16.32-3.27.49-3.49.52-6.99 1.02-10.48 1.51-1.14.16-2.28.33-3.46.5-16.37 2.36-32.77 4.19-49.23 5.82-8.95.88-17.87 1.77-26.75 3.24-12.5 2.07-25.15 2.99-37.76 4.1-5.37.48-10.74.97-16.11 1.46-.86.08-1.71.16-2.59.23-3.2.3-6.04.63-9.1 1.65-2.46.18-4.91.32-7.38.44-18.49.99-18.49.99-23.62 3.56-3.08.32-6.16.51-9.25.72C732 642 732 642 730 643c-1.64.28-3.29.51-4.94.72-.97.13-1.95.25-2.96.39l-6.2.78c-.98.13-1.96.26-2.96.39-.9.12-1.8.23-2.73.35C708 646 708 646 706 647c-1.57.28-3.14.51-4.72.72-.93.13-1.86.25-2.82.39l-5.92.78c-.93.13-1.86.26-2.82.39-.86.12-1.71.23-2.6.35C685 650 685 650 683 651c-1.87.23-3.75.41-5.62.56-.51.04-.51.04-3.04.26L672 652c1 2 1 2 4 3.12 4.55 1.97 8.22 4.71 12 7.88q1.02.84 2.07 1.71c6.71 6.06 11.06 13.6 12.44 22.59.39 10.88-3.44 20.28-8.51 29.7h-2c-.09.51-.18 1.02-.28 1.54-1.01 3.46-2.65 6.57-4.28 9.77-.36.71-.72 1.42-1.08 2.14-2.71 5.35-5.52 10.63-8.36 15.9-2.76 5.14-5.35 10.35-7.92 15.58-2.79 5.62-5.84 11.08-9.02 16.49-2.19 3.79-3.82 7.51-5.29 11.63-.99 2.52-2.31 4.82-3.7 7.15-1.99 3.35-3.8 6.8-5.63 10.24-.39.71-.77 1.42-1.17 2.16-1.84 3.44-3.49 6.82-4.8 10.5-1.17 3.28-2.66 6.16-4.45 9.15-1.77 3.03-3.28 6.17-4.83 9.31-.17.35-.17.35-1.04 2.09-1.39 2.79-2.77 5.58-4.15 8.37-.64 1.29-1.27 2.57-1.91 3.85-.85 1.71-1.7 3.43-2.55 5.14-1.41 2.74-2.92 5.37-4.54 7.99 4.26-.39 8.04-.91 12.06-2.38 5.28-1.87 10.69-2.82 16.18-3.87 3.29-.66 6.51-1.41 9.76-2.25 5.79-1.49 11.62-2.66 17.48-3.8 12.25-2.43 12.25-2.43 13.52-3.7l17-3 1-1c4.95-1.08 9.82-2.04 14.88-2.44 3.65-.32 7.01-.98 10.56-1.94 7.7-2.03 15.54-3.16 23.41-4.3 1.98-.29 3.94-.63 5.9-.98 4.9-.52 8.79.68 13.25 2.66 3.23 2.68 5.51 5.65 8 9 .75 19.34.75 19.34-4 27-.68 1.33-1.35 2.66-2 4h-2c-.29.76-.58 1.53-.88 2.31C770 884 770 884 768 887h-2v2c-6.84 4.97-13.08 6.94-21.38 8.35-3.12.56-5.99 1.3-9 2.27-4.54 1.46-8.87 2-13.62 2.38l-1 1c-1.26.1-2.52.21-3.81.31-3.53.39-6.78 1.07-10.19 2.07-5.46 1.57-10.94 2.56-16.55 3.44-3.84.63-7.54 1.46-11.29 2.53-5.01 1.41-10.04 2.5-15.13 3.52-.82.16-1.63.32-2.47.49q-5.07 1.02-10.14 2.01c-10.59 2.08-20.98 4.47-31.35 7.47-4.18 1.21-8.4 2.26-12.63 3.28-5.59 1.37-11.02 2.95-16.44 4.88l-.92 2.39c-.88 2.3-1.77 4.6-2.65 6.9-.91 2.35-1.81 4.72-2.7 7.08-1.93 5.1-3.91 10.13-6.23 15.07-2.45 5.26-4.34 10.66-6.24 16.13-1.5 4.09-3.29 7.98-5.14 11.92-1.33 2.99-2.33 6.02-3.31 9.13-.97 2.84-2.13 5.56-3.31 8.32-1.88 4.45-3.43 8.86-4.76 13.5a235 235 0 0 1-2.68 8.56c-.3.91-.59 1.82-.9 2.75-.95 2.66-1.97 5.26-3.04 7.87-2.3 5.71-4.2 11.52-6.06 17.38-.17.55-.17.55-1.05 3.31-2.25 7.13-4.35 14.28-6.28 21.5-1.28 4.71-2.75 9.32-4.35 13.94-2.4 7-4 13.98-5.38 21.25l-1 1-3 16-1 1c-.18 1.08-.36 2.15-.55 3.26-1.16 6.75-2.32 13.46-3.95 20.12-1.54 6.37-2.54 12.79-3.5 19.26-.11.78-.23 1.56-.35 2.37-.1.7-.2 1.39-.31 2.11C512 1187 512 1187 511 1190c-.2 2-.36 4-.5 6-.22 3.27-.46 5.88-1.5 9-.21 2.77-.37 5.53-.5 8.31-.07 1.5-.14 2.99-.22 4.49l-.09 2.01c-.19 2.19-.19 2.19-.69 5.01-.54 3.43-.68 6.72-.75 10.19-.01.66-.01.66-.1 3.99-.04 2.07-.09 4.14-.13 6.21-.04 2.02-.09 4.03-.14 6.05-.03 1.2-.05 2.39-.08 3.63-.28 2.93-.77 4.63-2.3 7.11-9.66 1.03-16.9-1.2-24.57-7.24-16.66-14.18-22.96-33.75-26.43-54.76-.17-.71-.35-1.42-.53-2.15-.66-4.01-.63-7.95-.64-12.01 0-.89 0-1.79-.01-2.72 0-1.9-.01-3.81-.01-5.72 0-2.83-.02-5.67-.03-8.51-.06-18.15 1.69-35.91 4.47-53.83.11-.68.21-1.37.32-2.08 3.03-19.71 6.88-39.31 11.63-58.68.67-2.78 1.28-5.56 1.86-8.36.74-3.4 1.88-6.49 3.15-9.71.96-2.71 1.62-5.44 2.29-8.23.99-4.13 2.18-8 3.75-11.95 1.23-3.37 2.08-6.85 3-10.32.88-3.21 1.92-6.33 3-9.48 1.07-3.2 1.99-6.45 2.91-9.7.86-2.6 1.92-5.08 3.02-7.6 1.5-3.57 2.74-7.23 4.01-10.89.27-.78.54-1.56.82-2.36.67-1.9 1.33-3.8 1.99-5.7-3.62.82-6.39 2.22-9.62 4.06-5.16 2.94-5.16 2.94-7.38 2.94v2c-6.62 4-6.62 4-10 4v2l-6 2v2l-6 2v2l-1.94 1.06c-6.5 4.12-12.37 9.1-18.11 14.21-1.25 1.11-2.5 2.2-3.77 3.27-9.41 7.99-18.36 16.59-25.36 26.8-1.21 1.77-2.48 3.5-3.8 5.19-6.11 7.85-10.08 16.39-14.02 25.47-.44 1-.87 2-1.32 3.03-2.05 4.91-3.62 9.76-4.68 14.97-.09.41-.09.41-.56 2.46-3.7 18.35-1.55 35.54 5.47 52.76.89 2.27 1.58 4.41 2.09 6.78-2 2-2 2-5.12 2.44-8.04 0-17.23-5.42-22.88-10.88-9-10.07-9-10.07-9-14.56h-2c-7.33-13.61-10.98-28.5-10-44 .08-1.3.16-2.61.24-3.95 1.29-16.4 6.35-31.41 13.76-46.05h2v-4h2c.1-.56.2-1.11.31-1.68 3.6-12.06 15.05-23.88 23.44-32.89 1.71-1.85 3.32-3.7 4.87-5.68 2.53-2.93 5.23-5.35 8.17-7.85 2.32-2 4.58-4.07 6.83-6.15C429.75 942 429.75 942 436 942v-2c.7-.4 1.41-.8 2.13-1.21 5.06-2.92 10.04-5.87 14.91-9.09 6.71-4.44 13.58-8.15 20.81-11.66 4.35-2.12 8.63-4.38 12.9-6.66 2.75-1.47 5.5-2.92 8.25-4.38 1.12-.59 2.24-1.19 3.39-1.8 6.08-3.15 11.99-5.45 18.61-7.2l3-1c-.06-1.15-.12-2.31-.19-3.5.02-4.61 1.41-8.3 3.19-12.5.79-2.1 1.59-4.21 2.38-6.31 1.87-4.87 3.91-9.62 6.1-14.35 2.08-4.56 4.05-9.17 6.02-13.78.39-.92.79-1.84 1.19-2.79 2.05-4.79 4.07-9.58 6.06-14.39 2.89-6.97 5.93-13.86 9.37-20.57 1.3-2.54 2.37-5.06 3.32-7.75 1.36-3.79 3.21-7.14 5.28-10.59 1.08-2.09 1.88-4.04 2.67-6.24 1.59-4.37 3.69-8.35 5.92-12.42 3.85-7.15 7.38-14.39 10.69-21.81 10.21-22.82 10.21-22.82 16-33 1.28-2.37 2.55-4.75 3.81-7.12.34-.64.67-1.27 1.02-1.92.7-1.31 1.39-2.62 2.09-3.93 1.1-2.07 2.21-4.14 3.31-6.21 4.13-7.74 8.17-15.51 12.03-23.38 2.09-4.25 4.36-8.35 6.74-12.44-3.36-.33-5.92.22-9.05 1.33-5 1.71-10.05 3.18-15.14 4.61-.91.26-1.83.52-2.77.79-4.1 1.16-8.2 2.32-12.31 3.44-1.21.34-2.42.67-3.67 1.02-1.04.28-2.08.56-3.15.85-2.91.96-2.91.96-5.96 2.49-2.76 1.38-5.15 2.15-8.14 2.85-4.92 1.27-9.26 3.11-13.84 5.29-4.49 2.01-9.14 3.55-13.81 5.12-2.98 1.14-5.47 2.5-8.16 4.21-3.45 1.6-5.09 2-9 2v2c-.52.18-1.05.37-1.59.56-6.59 2.46-12.69 5.61-18.86 8.94-4.68 2.52-9.4 4.92-14.17 7.25-4.84 2.39-9.14 4.92-13.38 8.25h-3v2c-.7.41-1.4.83-2.12 1.25-3.02 1.84-5.95 3.78-8.88 5.75-.93.6-1.86 1.2-2.81 1.81-4.21 2.89-8.19 6.02-12.19 9.19-.43.34-.43.34-2.62 2.05-4.38 3.46-8.57 6.88-12.38 10.95h-2v2h-2v2h-2v2c-.68.5-1.36.99-2.06 1.5-3.03 2.58-5.5 5.3-8.06 8.32-1.23 1.42-2.48 2.83-3.76 4.21-9.16 9.92-16.69 21.11-23.12 32.97-.6 1.09-1.19 2.18-1.81 3.3-14.23 27.05-17.2 58-8.38 87.28 3.22 9.25 7.85 16.99 14.19 24.42v2h2v2h2v2c.62.27 1.24.54 1.88.81C399 932 399 932 401 935c-1 4-1 4-3.12 5.38-4.89 2.76-9.24 3.87-14.84 3.89h-3.37c-1.15 0-2.3-.01-3.48-.02-1.14.01-2.28.02-3.45.02-22.3-.05-40.27-10.84-55.74-26.27-.74-.72-1.48-1.44-2.25-2.18-16.84-17.43-20.98-41.98-21.06-65.26-.01-1.06-.01-2.13-.02-3.22.07-7.29.94-14.2 2.33-21.34.21-1.14.42-2.28.64-3.45 2.95-13.54 8.35-26.11 14.36-38.55h2v-4h2c.1-.54.21-1.07.31-1.62.87-3.01 2.25-5.62 3.69-8.38h2c.11-.57.22-1.14.34-1.73.73-2.52 1.8-4.33 3.22-6.52.46-.71.91-1.41 1.38-2.14.18-.27.18-.27 1.06-1.61h2c.11-.35.11-.35.68-2.11 1.61-3.52 3.86-6.2 6.38-9.08 4.84-5.61 4.84-5.61 5.94-7.81h2v-2h2v-2h2v-2h2v-2h2v-2h2v-2h2v-2h2v-2h2v-2h2v-2c26.63-21 26.63-21 29-21v-2l6-2v-2l6-2v-2c.57-.3 1.14-.61 1.72-.92 3.67-1.99 7.11-3.96 10.47-6.46 3.7-2.72 7.73-4.67 11.86-6.68 4.35-2.13 8.64-4.36 12.91-6.64 7.5-4.02 15.02-7.78 22.88-11.06 3.58-1.5 6.88-3.15 10.16-5.24h4v-2c.94-.33 1.88-.65 2.85-.99 1.25-.44 2.49-.87 3.77-1.32.62-.22.62-.22 3.73-1.3 3.35-1.28 6.45-2.79 9.65-4.39 1.63-.54 3.28-1.05 4.94-1.5 2.93-.8 5.58-1.73 8.38-2.94 3.83-1.62 7.64-2.87 11.62-4.06 4.03-1.21 8.03-2.46 11.96-3.97 4.51-1.72 9.1-3.1 13.72-4.47.88-.26 1.75-.52 2.65-.79 6.18-1.83 12.37-3.6 18.59-5.31 2.37-.73 4.61-1.52 6.91-2.42 4.63-1.76 9.35-2.9 14.17-4.04 5.75-1.36 11.34-2.88 16.93-4.79 3.24-1.08 6.5-1.89 9.82-2.71.68-.17 1.36-.34 2.06-.51 4.53-1.11 9.07-2.1 13.63-3.05 4.77-1 9.36-2.23 14-3.69 4.32-1.24 8.72-2.09 13.12-3 3.15-.68 6.26-1.44 9.38-2.25 4.99-1.27 10-2.25 15.07-3.16 8.29-1.52 16.51-3.36 24.74-5.14 6.44-1.39 12.89-2.73 19.37-3.89 4.19-.75 8.24-1.62 12.32-2.81 5.55-1.61 11.17-2.47 16.87-3.38 4.43-.7 8.77-1.54 13.13-2.62 8.02-1.94 16.19-3 24.36-4.17 8.19-1.19 16.18-2.76 24.24-4.68 2.55-.55 4.98-.92 7.58-1.15 3.4-.31 6.52-.99 9.82-1.88 5.32-1.4 10.62-2.31 16.06-3.12 6.52-.98 12.88-2.2 19.29-3.75 4.46-1.02 8.95-1.79 13.46-2.56 6.18-1.07 12.35-2.24 18.51-3.43 6.22-1.19 12.44-2.34 18.67-3.47 1.69-.31 3.38-.61 5.07-.92 2.54-.46 5.08-.92 7.61-1.38 10.14-1.82 20.2-3.71 30.09-6.62 5.36-1.51 10.35-1.57 15.86-1.37m1603 72c2.91 1.13 5.68 2.41 8.48 3.79 2.17 1.04 4.24 1.84 6.52 2.59 11.51 4.17 19.97 12.17 26 22.62 4.3 9.91.82 20.94-2.62 30.62-.36 1.04-.72 2.07-1.08 3.14a553 553 0 0 1-11.52 30.18c-1.71 4.14-3.11 8.16-4.22 12.5-1.27 4.93-3.19 9.29-5.37 13.88-1.45 3.26-2.39 6.54-3.34 9.96-.88 2.8-1.95 5.42-3.12 8.11-2.97 7.03-5.42 14.2-7.85 21.42-4.75 14.07-4.75 14.07-6.53 18.11-1.52 3.47-2.69 6.98-3.85 10.58-1.6 4.97-3.4 9.73-5.5 14.5-2.07 4.9-3.98 9.76-5.44 14.88-1.41 4.9-3.36 9.49-5.37 14.18-1.36 3.37-2.36 6.76-3.34 10.24-.9 2.85-1.99 5.52-3.17 8.26-2.56 6.08-4.85 12.23-7.06 18.44-.38 1.08-.77 2.16-1.17 3.27-2.41 6.76-4.78 13.52-7.14 20.29-6.91 19.85-6.91 19.85-10.8 28.9-1.6 3.75-3.04 7.53-4.45 11.35-1.68 4.55-3.4 9.08-5.25 13.57-1.26 3.11-2.32 6.2-3.25 9.43-1.09 3.78-2.38 7.41-3.81 11.07-5.77 14.77-10.71 29.85-15.64 44.92-3.02 9.16-3.02 9.16-4.78 13.13-1.29 2.98-2.11 5.78-2.83 8.95-.87 3.67-1.82 7.24-3.06 10.81-4.25 12.51-5.58 26.23-3.44 39.31.49.66.49.66 3 4 11.71 1.02 21.15-6.12 30-13 1.73-1.62 3.36-3.28 5-5h2v-2h2v-2h2v-2h2c.24-.55.49-1.1.74-1.67 1.52-2.81 3.37-5.11 5.38-7.58.73-.89 1.45-1.78 2.2-2.7.55-.68 1.11-1.35 1.68-2.05h2c.12-.27.12-.27.75-1.62 1.25-2.38 1.25-2.38 3.31-5.19 2.95-4.86 2.97-9.28 2.88-14.81-.09-9.17 1.06-18.28 2.06-27.38.12-1.16.24-2.32.37-3.51 1.63-12.76 5.39-25.75 10.63-37.49.5-1.43.99-2.87 1.44-4.31 1.62-5 3.56-9.84 5.56-14.69h2c.13-.57.25-1.14.38-1.73 4.23-15.51 17.21-29.47 27.62-41.27.74-.85 1.48-1.7 2.25-2.58 1.57-1.81 3.16-3.62 4.75-5.42h2v-2h2v-2h2v-2h2v-2c34-27 34-27 41-27v-2c5.83-3.09 11.77-5.51 17.95-7.84 2.36-.9 4.68-1.83 6.99-2.85 7.24-3.1 14.37-4.29 22.12-5.43.58-.1.58-.1 3.49-.56 20.55-3.06 42.32-2.04 60.02 9.8 3.39 2.63 5.85 5.46 8.43 8.88v2h2c7.21 13.21 7.33 26.43 4 41-.83 2.75-1.9 5.35-3 8-.34.93-.68 1.86-1.02 2.82-7.36 20.12-18.65 37.79-30.98 55.18h-2v2h-2c-.25.72-.49 1.44-.75 2.19-1.36 3.06-3.08 5.28-5.25 7.81h-2v2h-2v2h-2v2h-2v2h-2v2h-2v2c-34 27-34 27-41 27v2c-.66.33-1.33.65-2.01.99-7.52 3.72-7.52 3.72-10.61 5.63-2.69 1.56-5.39 2.54-8.32 3.54-2.06.84-2.06.84-4.22 2.22-3.9 2.22-7.98 3.56-12.22 5-.43.15-.43.15-2.66.91-7.63 2.62-15.29 5.19-22.96 7.71-.78 15.35 1.24 30.03 11.78 42.02 7.3 7.08 16.29 9.46 26.26 9.54l3.15-.06c1.09-.01 2.18-.02 3.31-.04 26.26-.64 47.18-14.57 65.5-32.46h2v-2h2v-2c.8-.62 1.61-1.24 2.44-1.88 2.56-2.12 2.56-2.12 3.56-4.12h2v-2h2v-2h2c.24-.56.47-1.12.71-1.7 1.59-2.84 3.58-4.84 5.85-7.18 5.74-6.17 10.09-12.93 14.44-20.12h2c.05-.29.05-.29.33-1.77.75-2.51 1.77-3.89 3.42-5.92 2.69-3.45 4.85-6.97 6.88-10.84 1.37-2.47 1.37-2.47 2.42-4.05 4.58-6.91 7.62-14.49 10.87-22.1.77-1.8 1.56-3.6 2.34-5.4.45-1.07.91-2.13 1.38-3.23 1.89-3.74 3.36-5.24 7.17-6.94 3.53-.83 5.71-.68 9.19.25 3.11 2.08 3.79 2.62 5 6 .73 8.21.53 15.51-3 23-.84 2.23-1.67 4.46-2.5 6.69-1.52 4.07-3.26 7.59-5.5 11.31-.73 1.7-1.46 3.39-2.17 5.1A143 143 0 0 1 2783 1043c-1.44 1.96-2.87 3.92-4.31 5.88-1.44 1.97-2.89 3.93-4.33 5.9-1.5 2.04-2.96 4.11-4.36 6.22h-2c-.25.72-.49 1.44-.75 2.19-1.36 3.06-3.08 5.28-5.25 7.81h-2v2h-2c-.21.54-.43 1.08-.65 1.64-1.83 3.2-4.35 5.57-6.97 8.11-.52.51-1.04 1.01-1.57 1.54-3.78 3.71-3.78 3.71-5.81 3.71v2h-2v2c-10 8-10 8-12 8v2c-33.67 23.26-70.16 38.33-112 31-20.66-4.08-38.53-14.36-51.81-30.81-.79-.98-1.58-1.95-2.4-2.96-1.79-2.23-1.79-2.23-1.79-5.23h-2c-1.01-2.1-2.01-4.21-3-6.31-.56-1.17-1.11-2.35-1.69-3.55-1.31-3.14-1.31-3.14-1.31-6.14-3.45 3.36-6.6 6.82-9.62 10.56-.76.93-1.52 1.86-2.29 2.82-1.74 2.18-3.43 4.38-5.09 6.62h-2v2h-2l-2 4h-2v2h-2l-2 4h-2v2c-17.95 15.09-38.55 28.65-63 27-9.7-1.08-18.76-4.85-27-10v-2c-.58-.25-1.16-.51-1.76-.77-9.04-4.98-14.91-16.71-17.86-26.24-4.51-17.81-1.35-37.39 2.62-54.99.41-1.9.83-3.8 1.24-5.7 1.2-5.44 2.47-10.87 3.76-16.3.19-.79.37-1.58.56-2.39 2.96-12.47 2.96-12.47 4.9-17.49 1.66-4.3 2.86-8.67 4.04-13.12 1.37-5.18 2.89-10.19 4.83-15.19.89-2.4 1.54-4.83 2.17-7.31 1.03-3.92 2.27-7.64 3.75-11.41.9-2.5 1.57-5.02 2.25-7.59 1.03-3.92 2.27-7.64 3.75-11.41 1.19-3.33 2.04-6.75 2.91-10.18.83-2.87 1.85-5.62 2.92-8.41 1.85-5.02 3.51-10.12 5.2-15.21.65-1.96 1.31-3.92 1.96-5.87 2.04-6.13 4.03-12.26 5.89-18.44 1.37-4.5 2.96-8.69 4.87-12.98 1.06-2.92 2.03-5.86 3-8.81.26-.8.53-1.6.8-2.42 1.57-4.78 3.07-9.58 4.49-14.41 1.83-6.07 3.72-12.11 6.27-17.92 1.59-3.81 2.61-7.6 3.6-11.6.79-2.68 1.84-5.13 2.97-7.69 1.96-4.86 3.42-9.91 4.99-14.9l2.4-7.5c.2-.63.4-1.27.61-1.93 2.21-6.89 4.47-13.76 6.75-20.63.36-1.12.73-2.24 1.11-3.39 2.88-8.65 2.88-8.65 4.67-12.72 1.24-2.86 2.09-5.56 2.84-8.58.77-3.12 1.67-5.89 2.94-8.85 1.63-3.81 2.87-7.62 4.06-11.59 2.6-8.5 2.6-8.5 4.12-12.44 1.37-3.6 2.48-7.22 3.54-10.93.67-2.14 1.44-4.25 2.23-6.35 1.86-4.87 3.32-9.84 4.8-14.84 2.52-8.43 5.22-16.79 8.06-25.12 2.44-7.2 4.56-14.24 6.11-21.68 1.34-5.62 3.43-10.89 6.64-15.7h2v-2c7.4-4.16 17.12-1.98 25 0m110 283v2h-2v2h-2v2h-2v2h-2v2h-2v2h-2v2h-2v2h-2v2h-2v2h-2v2h-2c-2.04 2.81-4.09 5.62-6.12 8.44-.57.78-1.14 1.56-1.73 2.37C2653 935.2 2653 935.2 2653 938h-2c-.66 1.09-1.32 2.19-2 3.31-.37.62-.74 1.23-1.12 1.87-.88 1.82-.88 1.82-.88 4.82h-2c-.21.41-.21.41-1.25 2.5-.58 1.15-1.16 2.31-1.75 3.5-.31.63-.63 1.26-.95 1.91-1.66 3.32-3.33 6.64-5.01 9.95-16.39 32.23-16.39 32.23-20.04 48.14 18.86-4.37 37.62-14.96 54-25v-2c.76-.29 1.53-.58 2.31-.88C2675 985 2675 985 2678 983v-2c.69-.21 1.38-.42 2.09-.64 3.81-1.78 6.4-4.28 9.41-7.17.56-.52 1.11-1.05 1.68-1.58 3.34-3.14 6.59-6.36 9.82-9.61.65-.62 1.29-1.25 1.96-1.89 10.08-9.78 18.41-21.35 26.04-33.11v-3h2c5.16-9.55 9.22-18.2 11-29l1-1c.22-2.37.43-4.75.62-7.12.04-.34.04-.34.2-2.02.35-4.45-.14-7.74-1.82-11.86-13.54-12.98-37.3 5.26-48 14"/></svg>