<svg xmlns="http://www.w3.org/2000/svg" viewBox="0 0 48 48" role="img" aria-label="Google">
  <path fill="#4285f4" d="M45.1 24.5c0-1.6-.1-3.1-.4-4.5H24v8.5h11.8c-.5 2.7-2.1 5-4.4 6.5v5.4h7.1c4.1-3.8 6.6-9.4 6.6-15.9Z"/>
  <path fill="#34a853" d="M24 46c5.9 0 10.8-1.9 14.4-5.3l-7.1-5.4c-2 1.3-4.5 2.1-7.3 2.1-5.6 0-10.4-3.8-12.1-8.9H4.6v5.6C8.2 41.2 15.5 46 24 46Z"/>
  <path fill="#fbbc05" d="M11.9 28.5c-.4-1.3-.7-2.8-.7-4.3s.2-2.9.7-4.3v-5.6H4.6C3 17.3 2 20.6 2 24.2s1 6.9 2.6 9.9l7.3-5.6Z"/>
  <path fill="#ea4335" d="M24 10.9c3.2 0 6.1 1.1 8.4 3.3l6.2-6.2C34.8 4.5 29.9 2.4 24 2.4 15.5 2.4 8.2 7.2 4.6 14.3l7.3 5.6c1.7-5.2 6.5-9 12.1-9Z"/>
</svg>
