<svg xmlns="http://www.w3.org/2000/svg" width="2536" height="1824"><path fill="#E30613" d="M1353.59 155.898c4.75 0 9.5-.01 14.24-.01h2.87c15.29-.01 30.59-.02 45.88-.04 15.7-.02 31.4-.03 47.1-.04 9.69 0 19.37-.01 29.05-.02 6.65-.01 13.29-.02 19.94-.01 3.83 0 7.66-.01 11.49-.02 4.16-.01 8.32 0 12.48 0 .6 0 .6 0 3.64-.02 16.49.06 32.28 4.73 47.72 10.26.79.29 1.59.57 2.4.86 32.76 12.43 59.03 33.46 74.6 65.14.49.92.98 1.84 1.49 2.79 1.64 3.49 2.66 6.86 3.63 10.59.34 1.24.67 2.49 1.01 3.77 1.58 6.99 2.02 13.73 2.01 20.86 0 .88 0 1.76.01 2.66.01 2.94.01 5.87.01 8.81 0 2.12.01 4.25.01 6.38.02 5.84.02 11.68.03 17.53.01 6.3.02 12.6.04 18.9.02 10.92.04 21.83.05 32.75l.06 34.34v2.16c.01 3.62.01 7.23.02 10.85.05 25.61.09 51.21.13 76.82.04 24.88.08 49.75.13 74.63v2.32c.02 7.7.03 15.4.04 23.11l.09 47.06v2.19l.24 144.48 4.77 2.4c.44.22.44.22 2.68 1.35 3.14 1.54 6.32 2.91 9.55 4.25 4.95 2.09 9.77 4.31 14.52 6.83 2.72 1.28 5.49 2.34 8.3 3.37 21.84 8.04 21.84 8.04 32.02 13.26 3.11 1.52 6.23 2.77 9.47 3.98 5.32 2.02 10.52 4.2 15.69 6.56 1.46.65 2.92 1.3 4.37 1.94 3.37 1.49 6.72 3.02 10.07 4.56 4.34 1.98 8.72 3.79 13.16 5.54 2.33.93 4.61 1.93 6.9 2.96 3.14 1.42 6.3 2.74 9.5 4 3.96 1.57 7.85 3.26 11.73 5.01 2.32 1.02 4.66 1.95 7.02 2.87 3.93 1.55 7.74 3.26 11.56 5.06 5.48 2.56 11.02 4.78 16.68 6.91 3.33 1.27 6.58 2.68 9.81 4.16 5.24 2.37 10.56 4.57 15.86 6.8 3.32 1.39 6.65 2.79 9.97 4.19 1.48.63 2.97 1.25 4.45 1.88 6.69 2.8 13.24 5.73 19.69 9.04 2.69 1.31 5.43 2.34 8.24 3.34 2.17.81 4.26 1.73 6.36 2.68 5.64 2.54 11.37 4.81 17.13 7.03 5.21 2.03 10.16 4.33 15.13 6.88 3.37 1.64 6.84 2.89 10.37 4.15 6.07 2.3 11.86 4.89 17.63 7.85 2.72 1.32 5.47 2.39 8.32 3.41 5.81 2.1 11.5 4.46 17.11 7.05 5.54 2.56 11.16 4.87 16.81 7.17 4.4 1.8 8.76 3.66 13.1 5.63 2.3 1.01 4.63 1.92 6.97 2.83 3.5 1.38 6.84 2.91 10.18 4.62 3.55 1.82 7.07 3.36 10.82 4.7 7.92 2.86 15.6 6.27 23.27 9.74 3.9 1.75 7.81 3.43 11.79 5 5.48 2.17 10.84 4.57 16.21 7 4.73 2.13 9.5 4.1 14.32 6 3.1 1.26 6.14 2.63 9.19 4 2.41 1.06 4.84 2.04 7.28 3 5.48 2.17 10.84 4.57 16.21 7 4.73 2.13 9.5 4.1 14.32 6 3.1 1.26 6.15 2.63 9.2 4.01 2.36 1.03 4.74 1.99 7.14 2.93 3.45 1.36 6.83 2.82 10.19 4.37 5.54 2.56 11.16 4.87 16.81 7.17 4.4 1.8 8.76 3.67 13.09 5.63 2.33 1.02 4.68 1.96 7.04 2.89 5.48 2.17 10.84 4.57 16.21 7 3.9 1.75 7.81 3.43 11.79 5 5.5 2.18 10.89 4.59 16.28 7.04 4.85 2.18 9.72 4.15 14.72 5.96l-1 4c-7.2 3.12-14.41 6.19-21.71 9.07-3.04 1.24-6.02 2.59-9.02 3.94-2.36 1.03-4.74 1.99-7.15 2.93-3.55 1.4-7.03 2.9-10.5 4.5-9.06 4.16-18.27 7.86-27.61 11.35-3.01 1.21-3.01 1.21-5.99 2.7-3.1 1.55-6.21 2.8-9.46 4.01-3.92 1.48-7.8 3.01-11.65 4.68-2.14.92-4.28 1.82-6.43 2.72-.8.34-1.59.67-2.41 1.01-1.62.68-3.24 1.36-4.87 2.04-3.98 1.68-7.94 3.38-11.88 5.15-4.67 2.08-9.42 3.87-14.21 5.66-3.11 1.24-3.11 1.24-6.1 2.74-4.15 2.07-8.45 3.61-12.79 5.22-3.18 1.27-6.16 2.75-9.22 4.28-2.03.82-4.07 1.61-6.13 2.38-8.67 3.29-17.21 6.85-25.66 10.66-2.36 1.03-4.75 1.97-7.15 2.9-3.48 1.37-6.8 2.91-10.12 4.62-3.84 1.97-7.62 3.42-11.73 4.7-3.06 1.03-5.96 2.36-8.89 3.71-2.42 1.08-4.86 2.06-7.32 3.03-3.04 1.2-6.03 2.45-9 3.81-4.6 2.08-9.29 3.88-14 5.69-5.38 2.08-10.74 4.16-15.98 6.58-2.98 1.36-6 2.64-9.02 3.92-13.69 5.85-13.69 5.85-18.75 8.13-5.52 2.47-11.16 4.65-16.79 6.87-3.86 1.53-7.69 3.09-11.46 4.81-5.41 2.45-10.97 4.54-16.53 6.64-4.29 1.64-8.39 3.44-12.47 5.55-2.33 1.03-4.66 2.02-7 3-.88.37-1.75.74-2.66 1.13-6.39 2.69-12.83 5.23-19.33 7.66-3.01 1.21-3.01 1.21-5.99 2.7-3.1 1.55-6.21 2.8-9.46 4.01a300 300 0 0 0-13.56 5.5c-1.13.49-2.26.97-3.43 1.47-10.41 4.45-10.41 4.45-15.32 6.66-3.88 1.74-7.82 3.31-11.78 4.87-2.35.95-4.66 1.96-6.97 3-5.59 2.52-11.28 4.76-17 6.97-4.31 1.68-8.45 3.47-12.56 5.59-3.84 1.97-7.62 3.42-11.73 4.7-3.06 1.03-5.96 2.36-8.89 3.71-2.42 1.08-4.86 2.06-7.32 3.03-3.2 1.27-6.36 2.59-9.5 4-3.97 1.79-7.99 3.4-12.03 5-2.35.95-4.66 1.96-6.97 3-3.97 1.79-7.99 3.4-12.03 5-2.35.95-4.66 1.96-6.97 3-5.61 2.52-11.32 4.75-17.04 7-4.78 1.9-9.49 3.89-14.18 6-3.24 1.42-6.52 2.7-9.81 4-2.35.95-4.66 1.96-6.97 3-3.97 1.79-7.99 3.4-12.03 5-2.35.95-4.66 1.96-6.97 3-5.59 2.52-11.28 4.76-17 6.97-4.31 1.68-8.45 3.47-12.56 5.59-3.84 1.97-7.62 3.42-11.73 4.7-3.06 1.03-5.96 2.36-8.89 3.71-2.42 1.08-4.86 2.06-7.32 3.03-3.2 1.27-6.36 2.59-9.5 4-3.97 1.79-7.99 3.4-12.03 5-2.35.95-4.66 1.96-6.97 3-3.97 1.79-7.99 3.4-12.03 5-2.35.95-4.66 1.96-6.97 3-5.59 2.52-11.28 4.76-17 6.97-4.31 1.68-8.45 3.47-12.56 5.59-3.84 1.97-7.62 3.42-11.73 4.7-3.06 1.03-5.96 2.36-8.89 3.71-2.42 1.08-4.86 2.06-7.32 3.03-3.2 1.27-6.36 2.59-9.5 4-5.59 2.52-11.28 4.76-17 6.97-4.31 1.68-8.45 3.47-12.56 5.59-3.81 1.96-7.55 3.37-11.62 4.65-3.49 1.19-6.76 2.78-10.1 4.34-8.45 3.82-17.1 7.22-25.72 10.64-3.79 1.5-7.5 3.14-11.22 4.81-3.25 1.43-6.54 2.71-9.84 4.01-2.18.89-4.31 1.83-6.44 2.8-4.6 2.08-9.29 3.88-14 5.69-6.08 2.34-12.08 4.78-18 7.5-2.33 1-4.67 2-7 3-.65.3-1.3.6-1.98.9-4.31 1.96-8.65 3.74-13.08 5.41-8.64 3.29-17.08 7.04-25.5 10.85-5.33 2.42-10.75 4.53-16.23 6.6-3.44 1.33-6.82 2.77-10.21 4.24-1.13.49-2.26.97-3.43 1.47-5.22 2.23-10.45 4.46-15.63 6.78-.71.31-1.41.62-2.13.94-1.45.65-2.89 1.35-4.31 2.06-8.15 2.45-13.87.02-21.29-3.66a101 101 0 0 0-8.46-3.71c-5.4-2.12-10.68-4.49-15.96-6.88-4.73-2.12-9.5-4.09-14.32-6-3.1-1.25-6.14-2.62-9.19-4-2.41-1.05-4.84-2.03-7.28-3-3.96-1.56-7.84-3.25-11.72-5-2.41-1.05-4.84-2.03-7.28-3-5.48-2.17-10.84-4.57-16.21-7-4.73-2.12-9.5-4.09-14.32-6-3.1-1.25-6.14-2.62-9.19-4-2.39-1.04-4.79-1.99-7.22-2.94-3.5-1.37-6.84-2.91-10.19-4.62a93 93 0 0 0-10.82-4.7c-5.81-2.09-11.5-4.46-17.11-7.05-4.81-2.21-9.67-4.25-14.57-6.25-5.83-2.39-11.63-4.82-17.37-7.44-7.05-3.19-14.18-6.13-21.4-8.93-4.72-1.85-9.32-3.85-13.91-6.01-5.49-2.56-11.04-4.79-16.72-6.88-3.09-1.23-5.99-2.69-8.97-4.18-2.09-.84-4.2-1.65-6.31-2.44-6.33-2.4-12.52-4.94-18.55-8.02-3.11-1.52-6.21-2.77-9.45-3.98-6.33-2.39-12.52-4.93-18.54-8.02-3.15-1.54-6.31-2.81-9.59-4.04-6.75-2.56-13.32-5.38-19.87-8.44-4.7-2.18-9.43-4.19-14.26-6.07-2.53-1.03-5.01-2.15-7.49-3.3-5.54-2.55-11.16-4.86-16.81-7.16-4.4-1.81-8.77-3.67-13.1-5.64-2.28-1-4.59-1.91-6.91-2.83-3.44-1.36-6.82-2.81-10.18-4.37-5.54-2.55-11.16-4.86-16.81-7.16-4.4-1.81-8.77-3.67-13.1-5.64-2.28-1-4.59-1.91-6.91-2.83-3.44-1.36-6.82-2.81-10.18-4.37-4.81-2.21-9.67-4.25-14.57-6.25-5.83-2.39-11.63-4.82-17.37-7.44-5.46-2.47-10.96-4.79-16.53-7-3.1-1.25-6.14-2.62-9.19-4-2.41-1.05-4.84-2.03-7.28-3-5.48-2.17-10.84-4.57-16.21-7-3.9-1.75-7.81-3.42-11.79-5-5.48-2.17-10.84-4.57-16.21-7-4.73-2.12-9.5-4.09-14.32-6-3.1-1.25-6.14-2.62-9.19-4-2.41-1.05-4.84-2.03-7.28-3-3.96-1.56-7.85-3.25-11.73-5-2.36-1.04-4.74-1.99-7.15-2.94-3.44-1.36-6.82-2.81-10.18-4.37-4.76-2.2-9.59-4.21-14.44-6.19-4.71-1.92-9.39-3.86-14-6-5.39-2.49-10.87-4.73-16.37-6.98a420 420 0 0 1-15.13-6.52c-5.46-2.47-10.96-4.79-16.53-7-3.1-1.25-6.15-2.63-9.2-4-2.36-1.04-4.74-1.99-7.15-2.94-3.44-1.36-6.82-2.81-10.18-4.37-4.81-2.21-9.67-4.25-14.57-6.25-5.83-2.39-11.63-4.82-17.37-7.44-5.46-2.47-10.96-4.79-16.53-7-3.1-1.25-6.14-2.62-9.19-4-2.41-1.05-4.84-2.03-7.28-3-3.96-1.56-7.85-3.25-11.73-5.01-2.32-1.01-4.66-1.94-7.02-2.86-3.93-1.55-7.74-3.27-11.56-5.07-5.46-2.55-10.98-4.78-16.62-6.88-3.4-1.3-6.73-2.73-10.07-4.18-.56-.23-.56-.23-3.39-1.43-5.41-2.28-10.76-4.58-15.99-7.26-3.46-1.77-6.9-3.26-10.56-4.57-6.38-2.3-12.61-4.96-18.79-7.75-2.32-1.01-4.66-1.94-7.02-2.86-3.93-1.55-7.74-3.27-11.56-5.07-5.49-2.56-11.04-4.79-16.72-6.88-3.09-1.23-5.99-2.69-8.97-4.18-2.09-.84-4.2-1.65-6.31-2.44-4.65-1.76-9.21-3.61-13.73-5.67-1.72-.78-3.47-1.52-5.21-2.26-3.39-1.44-6.72-3.01-10.06-4.57-4.74-2.19-9.5-4.23-14.36-6.13-2.31-.92-4.57-1.91-6.83-2.93-3.14-1.41-6.3-2.73-9.5-4-3.95-1.56-7.82-3.24-11.68-4.98-4.06-1.78-8.19-3.4-12.32-5.02l-2-5c.62-.24 1.23-.48 1.87-.73 4.25-1.68 8.47-3.39 12.63-5.27 3.14-1.41 6.3-2.73 9.5-4 4.73-1.87 9.37-3.9 14-6 5.46-2.47 10.96-4.79 16.53-7 2.35-.95 4.66-1.96 6.97-3 3.14-1.41 6.3-2.73 9.5-4 4.73-1.87 9.37-3.91 14-6l6.75-3c1.49-.66 2.98-1.33 4.46-2 4.73-2.12 9.5-4.09 14.32-6 3.1-1.25 6.14-2.62 9.19-4 2.39-1.04 4.79-1.99 7.22-2.94 4.37-1.72 8.51-3.76 12.69-5.9 2.74-1.34 5.51-2.39 8.38-3.42 2.94-1.09 5.78-2.41 8.64-3.7 2.43-1.07 4.88-2.06 7.35-3.04 4.73-1.87 9.37-3.9 14-6 5.46-2.47 10.96-4.79 16.53-7 2.35-.95 4.66-1.96 6.97-3 3.14-1.41 6.3-2.73 9.5-4 4.73-1.87 9.37-3.9 14-6 4.55-2.06 9.1-4.05 13.75-5.87 3.93-1.55 7.74-3.27 11.56-5.07 5.48-2.56 11.02-4.77 16.68-6.9 5.08-1.95 10.02-4.14 14.86-6.62 4.21-2.05 8.55-3.63 12.93-5.26 3.18-1.26 6.18-2.72 9.22-4.28 1.66-.67 3.33-1.34 5-2 3.76-1.64 7.5-3.32 11.23-5.01 4.72-2.12 9.48-4.08 14.3-5.99 3.87-1.56 7.67-3.28 11.47-5 5.46-2.47 10.96-4.79 16.53-7 3.1-1.25 6.14-2.62 9.19-4 2.39-1.04 4.79-1.99 7.22-2.94 3.5-1.37 6.84-2.91 10.18-4.62 3.56-1.82 7.08-3.36 10.84-4.7 6.26-2.25 12.33-4.85 18.35-7.68 5.49-2.56 11.04-4.79 16.72-6.88 2.97-1.18 2.97-1.18 5.95-2.67 3.06-1.53 6.13-2.75 9.33-3.95 5.32-2.01 10.52-4.19 15.69-6.56 2.25-.99 4.51-1.98 6.76-2.97 1.73-.79 3.43-1.63 5.11-2.5 3.1-1.52 6.21-2.76 9.44-3.97 6.33-2.4 12.52-4.94 18.55-8.02 3.1-1.52 6.21-2.77 9.45-3.98 4.57-1.72 9.06-3.54 13.49-5.57 3.05-1.37 6.13-2.68 9.2-3.99 7.69-3.28 15.37-6.58 23-10l6.75-3c1.49-.66 2.98-1.33 4.46-2 4.73-2.12 9.5-4.09 14.32-6 3.1-1.25 6.14-2.62 9.19-4 2.39-1.04 4.79-1.99 7.22-2.94 3.5-1.37 6.84-2.91 10.18-4.62 3.56-1.82 7.08-3.36 10.84-4.7 6.26-2.25 12.33-4.85 18.35-7.68 5.49-2.56 11.04-4.79 16.72-6.88 2.97-1.18 2.97-1.18 5.95-2.67 3.06-1.53 6.13-2.75 9.33-3.95 5.32-2.01 10.52-4.19 15.69-6.56 1.5-.67 3-1.33 4.5-2 .74-.33 1.48-.66 2.24-1.01 1.52-.66 3.04-1.3 4.58-1.92 6.97-2.86 12.27-6.23 15.68-13.07.96-1.03 1.97-2.03 3-3 3.73-4.08 7.24-8.27 10.56-12.69 2.01-2.61 3.92-4.88 6.5-6.93 2.34-1.89 3.95-3.48 5.81-5.75 2.71-3.25 5.66-5.96 8.88-8.69 2.54-2.19 4.98-4.47 7.44-6.75 9.59-8.73 19.95-16.11 30.81-23.19 2.04-1.37 4.08-2.75 6.12-4.12 15.69-10.44 32.29-19.21 49.65-26.51 2.54-1.08 5.04-2.2 7.54-3.37 6.4-2.87 13.09-5.01 19.71-7.3 2.57-.9 5.12-1.86 7.67-2.82 5.17-1.9 10.44-3.39 15.74-4.87 4.6-1.3 9.16-2.71 13.72-4.13 2.28-.7 4.56-1.37 6.85-2 3-.88 3-.88 5.31-1.82 2.86-1.13 5.73-2 8.67-2.87 6.89-2.09 13.57-4.57 20.27-7.19 1.11-.42 2.21-.85 3.35-1.29 5.56-2.15 11.06-4.37 16.48-6.84 1.99-.9 3.98-1.76 5.98-2.62 6.43-2.85 12.67-6.08 18.95-9.24 2.04-1.03 4.09-2.05 6.14-3.07 3.17-1.59 6.3-3.23 9.41-4.94.87-.47 1.74-.95 2.63-1.44 5.91-3.28 11.64-6.67 17.25-10.43.65-.44 1.3-.88 1.97-1.32 4.65-3.13 9.17-6.38 13.59-9.81h2v-2c.56-.42 1.11-.85 1.69-1.28 5.28-4.06 10.35-8.27 15.31-12.72h2l2-4h2l2-4h2c.23-.54.47-1.09.71-1.65 1.64-2.98 3.7-5.33 5.91-7.91 12.87-15.17 23.37-32.38 29.38-51.44.27-.79.55-1.59.83-2.41 2.23-7.08 2.87-14.23 3.44-21.6.36-4.43.98-7.87 2.73-11.99.39-2.45.72-4.91 1-7.37.43-3.73.85-7.15 2-10.73 3.4-11.42 2.16-24.8 2.13-36.61-.01-2.85 0-5.7.01-8.54.01-25.84.01-25.84-3.14-35.75q-.465-3.36-.81-6.75c-2.05-16.44-7.63-31.97-13.49-47.38-.56-1.49-1.1-2.97-1.63-4.47-10.33-27.89-29-52.82-49.07-74.4v-2l-4-2v-2l-4-2v-2l-4-2v-2c-.52-.21-1.05-.43-1.59-.65-3.38-1.89-6.12-4.37-9.04-6.91-6.13-5.32-6.13-5.32-8.37-6.44v-2l-4-1-6-6c14.43-14.43 101.15-2.09 122.59-2.1m-462.7 634.45c-2.99 1.71-5.91 2.9-9.14 4.09-5.35 2.01-10.56 4.19-15.75 6.56-1.46.65-2.92 1.3-4.38 1.94-3.36 1.49-6.71 3.02-10.06 4.56-4.3 1.97-8.65 3.75-13.06 5.48-2.55 1.04-5.06 2.17-7.56 3.33-4.76 2.2-9.59 4.21-14.44 6.19-4.71 1.92-9.39 3.86-14 6-5.35 2.48-10.79 4.69-16.24 6.92-4.84 1.97-9.59 4.08-14.33 6.27-4.46 2-9 3.81-13.52 5.65-4.45 1.82-8.82 3.74-13.16 5.79-5.33 2.5-10.75 4.65-16.26 6.72-4.98 1.91-9.79 4.14-14.63 6.37-5.24 2.4-10.5 4.66-15.86 6.76-2.55 1.04-5.06 2.17-7.56 3.33-4.76 2.2-9.59 4.21-14.44 6.19-4.71 1.92-9.39 3.86-14 6-5.35 2.48-10.79 4.69-16.24 6.92-3.96 1.62-7.88 3.28-11.76 5.08-5.35 2.48-10.79 4.69-16.24 6.92-4.84 1.97-9.59 4.08-14.33 6.27-4.46 2-9 3.81-13.52 5.65-4.45 1.82-8.82 3.74-13.16 5.79-5.33 2.5-10.75 4.65-16.26 6.72-4.98 1.91-9.79 4.14-14.63 6.37-5.24 2.4-10.5 4.66-15.86 6.76-2.55 1.04-5.06 2.17-7.56 3.33-4.76 2.2-9.59 4.21-14.44 6.19-4.71 1.92-9.39 3.86-14 6-5.35 2.48-10.79 4.69-16.24 6.92-3.96 1.62-7.88 3.28-11.76 5.08-5.35 2.48-10.79 4.69-16.24 6.92-3.96 1.62-7.88 3.28-11.76 5.08-5.35 2.48-10.79 4.69-16.24 6.92-3.96 1.62-7.88 3.28-11.76 5.08-5.35 2.48-10.79 4.69-16.24 6.92-3.96 1.62-7.88 3.28-11.76 5.08-5.35 2.48-10.79 4.69-16.24 6.92-3.96 1.62-7.88 3.28-11.76 5.08-5.35 2.48-10.79 4.69-16.24 6.92-3.96 1.62-7.88 3.28-11.76 5.08-5.38 2.5-10.86 4.73-16.35 6.97a421 421 0 0 0-15.15 6.53c2.51 6.28 5.05 6.42 11 9 1.66.68 3.33 1.34 5 2 3.96 1.57 7.85 3.26 11.73 5.01 2.36 1.03 4.74 1.99 7.14 2.93 3.45 1.36 6.83 2.82 10.19 4.37 5.54 2.56 11.16 4.87 16.81 7.17 4.4 1.8 8.77 3.67 13.1 5.63 2.28 1 4.59 1.92 6.9 2.83 3.45 1.36 6.83 2.82 10.19 4.37 6.81 3.14 13.75 5.94 20.68 8.77 19.13 7.8 19.13 7.8 25.89 10.86 3.78 1.7 7.58 3.34 11.38 5 4.38 1.91 8.76 3.84 13.13 5.78 19.59 8.7 19.59 8.7 28.96 12.18 7.53 2.87 14.9 6.16 22.21 9.54 5.46 2.5 11 4.77 16.55 7.04 5.78 2.36 11.48 4.86 17.16 7.44 5.52 2.48 11.1 4.75 16.73 6.96 6.82 2.69 13.49 5.55 20.11 8.69 4.13 1.88 8.33 3.53 12.55 5.18 4.14 1.64 8.19 3.42 12.21 5.31 5.38 2.53 10.83 4.7 16.39 6.79 4.9 1.88 9.64 4.07 14.41 6.27 6.74 3.09 13.54 5.99 20.39 8.82 2.12.88 4.23 1.75 6.35 2.63 1 .42 2.01.84 3.05 1.27 7.42 3.09 14.81 6.23 22.1 9.6 5.46 2.5 11 4.77 16.56 7.04 4.4 1.8 8.77 3.67 13.1 5.63 2.28 1 4.59 1.92 6.9 2.83 3.45 1.36 6.83 2.82 10.19 4.37 4.81 2.22 9.67 4.25 14.56 6.25 5.84 2.39 11.64 4.83 17.38 7.44 5.46 2.47 10.96 4.8 16.53 7 2.35.95 4.66 1.96 6.97 3 5.56 2.5 11.22 4.73 16.9 6.93 5.93 2.33 11.69 4.95 17.46 7.64 2.59 1.18 5.18 2.28 7.83 3.31 4.78 1.86 9.44 3.95 14.12 6.06 6.4 2.87 12.81 5.52 19.37 7.98 4.92 1.89 9.68 4.1 14.46 6.3 5.24 2.4 10.49 4.66 15.86 6.76 2.55 1.04 5.06 2.17 7.56 3.33 4.76 2.2 9.59 4.21 14.44 6.19 4.71 1.92 9.39 3.86 14 6 5.39 2.5 10.87 4.74 16.37 6.98 4.4 1.8 8.76 3.67 13.09 5.63 2.33 1.02 4.68 1.96 7.04 2.89 5.48 2.17 10.84 4.57 16.21 7 4.73 2.13 9.5 4.1 14.32 6 3.1 1.26 6.15 2.63 9.2 4.01 2.36 1.03 4.74 1.99 7.14 2.93 3.56 1.4 7.04 2.9 10.5 4.5 7.93 3.64 15.96 6.95 24.13 10 5.46 2.07 10.6 4.55 15.79 7.22 3.49 1.73 7.05 3.04 10.71 4.34 5.5 2.09 10.86 4.38 16.19 6.88 5.39 2.52 10.83 4.77 16.37 6.94 4.55 1.8 8.99 3.77 13.43 5.83 3.8 1.71 7.65 3.28 11.51 4.85 5.58 2.28 11.09 4.65 16.56 7.19 3.78 1.69 7.61 3.25 11.44 4.81 4.71 1.92 9.39 3.86 14 6 5.39 2.5 10.87 4.74 16.37 6.98 4.4 1.8 8.76 3.67 13.09 5.63 2.33 1.02 4.68 1.96 7.04 2.89 5.39 2.13 10.67 4.46 15.93 6.9 6.18 2.82 12.51 5.24 18.86 7.64.76.29 1.52.58 2.3.88.68.25 1.36.51 2.06.78 1.85.8 1.85.8 4.85 2.8 6.8.5 10.97-.97 17-4 7.38-3.51 14.89-6.55 22.51-9.48 4.52-1.74 8.97-3.54 13.36-5.56 2.65-1.19 5.32-2.29 8-3.4 3.92-1.61 7.78-3.29 11.63-5.06 8.99-4.12 18.14-7.79 27.39-11.29 3.41-1.32 6.76-2.76 10.11-4.21 2.91-1.23 5.83-2.46 8.75-3.69 1.69-.71 3.39-1.42 5.08-2.13.43-.18.43-.18 2.6-1.1 4.02-1.69 8.05-3.38 12.07-5.08 1.58-.66 3.17-1.33 4.75-2 .78-.33 1.57-.66 2.37-1 2.38-1 4.75-2 7.13-3 .78-.33 1.57-.66 2.38-1 1.57-.66 3.15-1.33 4.73-1.99 4.07-1.71 8.14-3.43 12.21-5.15 7.13-3.01 14.27-6.02 21.48-8.87 6.96-2.81 13.87-5.8 20.7-8.93 5.3-2.38 10.74-4.4 16.16-6.49 4.55-1.75 9.03-3.58 13.46-5.61 2.65-1.19 5.32-2.29 8-3.4 3.81-1.57 7.58-3.2 11.32-4.93 9.29-4.27 18.81-8.05 28.31-11.82 3.79-1.5 7.5-3.13 11.22-4.81 3.25-1.42 6.54-2.71 9.84-4.01 2.18-.88 4.31-1.82 6.44-2.8 5.41-2.45 10.97-4.53 16.53-6.64 4.29-1.64 8.36-3.47 12.47-5.55 3.24-1.29 6.51-2.5 9.78-3.72 3.18-1.26 6.16-2.75 9.22-4.28 2.05-.81 4.12-1.61 6.19-2.37 5.17-1.96 10.18-4.12 15.19-6.44 4.95-2.24 10.02-4.17 15.08-6.15 5.31-2.09 10.51-4.37 15.7-6.75 7.07-3.2 14.27-6.09 21.53-8.85 6.09-2.33 12.01-4.9 17.92-7.66 4.6-2.13 9.17-4.1 13.95-5.78 4.5-1.58 8.66-3.51 12.86-5.75 2.75-1.33 5.54-2.4 8.41-3.45 9.85-3.62 19.64-7.41 29.17-11.8 2.33-1 4.67-2 7-3 .65-.29 1.3-.59 1.98-.9 5.55-2.52 11.19-4.72 16.91-6.85 3.11-1.25 3.11-1.25 6.1-2.74 4.15-2.08 8.45-3.61 12.79-5.23 3.18-1.26 6.16-2.75 9.22-4.28 2.05-.81 4.12-1.61 6.19-2.37 4.07-1.54 8.06-3.15 12-5 4.9-2.28 9.89-4.25 14.93-6.19 6.83-2.62 13.53-5.39 20.15-8.51 7.03-3.26 14.18-6.15 21.39-8.99 4.84-1.91 9.62-3.92 14.37-6.06 2.3-1.02 4.62-1.97 6.97-2.88 3.2-1.26 6.36-2.58 9.5-4 5.58-2.51 11.27-4.74 16.97-6.96 4.25-1.68 8.44-3.43 12.59-5.35 9.33-4.29 18.89-8.09 28.44-11.88 3.79-1.5 7.5-3.13 11.22-4.81 3.24-1.42 6.52-2.7 9.81-4 2.35-.95 4.66-1.96 6.97-3 3.98-1.79 8.01-3.41 12.06-5.01 2.18-.88 4.31-1.82 6.44-2.8 4.6-2.08 9.29-3.88 14-5.69 5.35-2.06 10.66-4.15 15.87-6.54 2.65-1.19 5.32-2.29 8-3.4 3.84-1.58 7.62-3.23 11.38-5 5.23-2.4 10.57-4.4 15.97-6.39 4.3-1.59 8.52-3.28 12.69-5.21 5.88-2.69 11.88-5.14 17.84-7.65 1.69-.71 3.39-1.42 5.08-2.13.86-.36 1.72-.72 2.6-1.1 3.24-1.36 6.48-2.73 9.72-4.09 1.57-.66 3.14-1.32 4.7-1.98 4.07-1.71 8.15-3.43 12.22-5.15 13.88-5.86 13.88-5.86 18.93-7.86 14.86-5.89 29.46-12.37 44-19-2-4-2-4-4.82-5.1-6.35-2.5-12.63-5.05-18.81-7.96-5.37-2.53-10.82-4.7-16.38-6.79-4.98-1.91-9.79-4.14-14.63-6.37-5.24-2.4-10.5-4.65-15.86-6.76-2.55-1.04-5.06-2.17-7.56-3.33-4.76-2.2-9.59-4.21-14.44-6.19-4.71-1.92-9.39-3.86-14-6-5.39-2.49-10.87-4.73-16.37-6.98-4.4-1.8-8.76-3.66-13.09-5.62-2.33-1.02-4.68-1.96-7.04-2.9-5.48-2.17-10.84-4.57-16.21-7-3.9-1.75-7.81-3.42-11.79-5-5.39-2.13-10.67-4.46-15.93-6.89-5.28-2.42-10.66-4.52-16.07-6.61-7.08-2.73-14.08-5.49-20.84-8.95-3.11-1.52-6.23-2.78-9.47-3.99-4.44-1.68-8.8-3.43-13.12-5.39-3.51-1.59-7.04-3.13-10.57-4.67-4.24-1.85-8.48-3.71-12.69-5.62-4.64-2.08-9.4-3.84-14.16-5.65-5.12-1.99-10.12-4.19-15.01-6.69-3.11-1.52-6.21-2.77-9.45-3.98-6.24-2.36-12.28-4.99-18.33-7.78-5.24-2.4-10.5-4.65-15.86-6.76-2.55-1.04-5.06-2.17-7.56-3.33-4.6-2.12-9.25-4.08-13.94-6-24.35-9.96-24.35-9.96-36.13-15.41-4.53-2.02-9.14-3.88-13.74-5.76-4.4-1.8-8.77-3.66-13.1-5.63-2.3-1.01-4.63-1.92-6.97-2.83-3.5-1.37-6.84-2.91-10.19-4.62-4.2-2.15-8.43-3.84-12.87-5.44-6.07-2.29-11.86-4.89-17.63-7.84-2.72-1.33-5.47-2.4-8.31-3.42-7.87-2.83-15.51-6.22-23.12-9.67-5.5-2.48-11.07-4.74-16.69-6.94a337 337 0 0 1-20.2-8.74c-14.77-6.71-14.77-6.71-20.05-5.39l-1 181-1 1H857c-4.28-4.27-2.19-14.86-2.2-20.94.09-37.51 6.15-74.98 16.2-111.06.33-1.19.66-2.39 1-3.62 2.85-10.16 6-20.13 10.01-29.89 1.03-2.58 1.95-5.18 2.86-7.8 2.64-7.34 6.06-14.33 9.4-21.37.19-.39.19-.39 1.1-2.38.32-.67.64-1.34.97-2.04.66-1.9.66-1.9.66-5.9-4 0-4 0-6.11 1.35"/><path fill="#e30613" d="M1082.25 151.813h3.34c7.99.06 15.55.66 23.41 2.19.97.17 1.93.33 2.93.51 2.7.47 5.38.97 8.07 1.49.8.14 1.59.28 2.41.43 6.16 1.14 12.12 2.8 18.13 4.56 3.08.9 6.17 1.71 9.27 2.51 5.01 1.37 9.51 3.27 14.19 5.5 1.34.61 2.68 1.22 4.02 1.82 13.84 6.31 13.84 6.31 20.02 10.85 1.96 1.33 1.96 1.33 4.85 2.75 3.17 1.61 5.84 3.45 8.67 5.58 2.67 2 5.28 3.9 8.14 5.61 2.27 1.37 3.91 2.91 5.74 4.82 2 2.01 4.12 3.87 6.25 5.76 24.01 21.5 43.98 48.45 55.31 78.81.28.73.55 1.47.84 2.23 3.89 10.49 7.19 20.73 9.16 31.77l.55 2.6c10.01 49.06 1.21 102.43-24.55 145.4-.46.77-.93 1.55-1.41 2.35-5.69 9.23-12.19 17.91-18.59 26.65h-2c-.24.56-.49 1.12-.74 1.7-1.49 2.72-3.3 4.76-5.39 7.05a402 402 0 0 1-3.87 4.25h-2l-1 3c-10.94 9.89-22.27 19.5-35 27-.7.43-1.41.87-2.14 1.32-6.31 3.88-12.78 7.2-19.49 10.37l-2.98 1.43c-12.1 5.75-24.48 9.38-37.39 12.88-.6.16-.6.16-3.64.98-35.05 8.45-77.04 6.09-110.85-6.1-2.44-.86-4.88-1.53-7.38-2.19-6.77-2-12.92-5.41-19.13-8.69-.96-.51-1.93-1.02-2.92-1.55-2.71-1.45-5.4-2.95-8.08-4.45-.97-.53-1.93-1.07-2.93-1.62-6.47-3.65-12.41-7.71-18.28-12.27-2.86-2.17-5.78-4.15-8.79-6.11v-2c-.56-.25-1.12-.49-1.7-.74-2.72-1.49-4.76-3.3-7.05-5.39-.8-.72-1.6-1.45-2.42-2.19l-1.83-1.68v-2c-.29-.13-.29-.13-1.77-.76-2.54-1.42-4.02-2.97-5.92-5.18-.3-.34-.3-.34-1.82-2.09-1.49-1.97-1.49-1.97-2.49-4.97l-3-1c-.57-.87-1.13-1.74-1.72-2.63-2.13-3.2-4.44-6.26-6.78-9.31-3.2-4.24-5.98-8.39-8.5-13.06-.62-.89-1.24-1.78-1.87-2.69-2.54-3.94-4.57-8.04-6.62-12.24-.92-1.87-1.86-3.74-2.83-5.58-7.28-13.88-11.38-29.24-14.68-44.49l-1-2c-5.29-33.46-5.13-68.5 5-101 .18-.58.18-.58 1.07-3.48 11.32-35.18 32.11-69.92 60.93-93.52.6-.51 1.2-1.01 1.82-1.53 4.14-3.47 4.14-3.47 6.18-3.47l1-3 4-1v-2c28.32-19.54 57.07-31.82 90.81-38.69 1.05-.21 2.1-.43 3.18-.65 10.47-2.07 20.59-2.86 31.26-2.85M334 1512h17c1.65 4.13 2.37 6.72 2.88 11l.49 3.96c.04.39.04.39.29 2.34.73 5.76 1.54 11.51 2.34 17.26.17 1.21.33 2.41.5 3.66 1.36 9.84 1.36 9.84 2.01 14.26 1.27 8.61 2.25 17.23 3.11 25.9.14 1.33.28 2.66.41 4 .33 3.2.65 6.41.97 9.62l3-1c.33-.89.66-1.77 1-2.68 3.61-9.49 8-18.35 12.87-27.25 1.76-3.22 3.47-6.46 5.19-9.69.66-1.24 1.32-2.47 1.98-3.7 1.65-3.1 3.3-6.2 4.96-9.3.66-1.25 1.33-2.5 2-3.75 1.69-3.17 3.38-6.34 5.07-9.52 11.12-20.9 11.12-20.9 13.93-25.11h18c.96 4.8.85 7.61.19 12.38-.1.7-.19 1.4-.29 2.12l-.6 4.37c-.45 3.21-.87 6.42-1.3 9.63-.17 1.25-.34 2.5-.51 3.78-.56 4.21-1.08 8.43-1.6 12.65-1.07 8.54-2.17 17.08-3.28 25.62-.83 6.35-1.65 12.71-2.45 19.07-.36 2.88-.72 5.75-1.09 8.62l-.51 4.13c-.24 1.92-.48 3.83-.73 5.74-.13 1.09-.27 2.19-.41 3.31C419 1626 419 1626 418 1628c-2.88.96-4.7 1.11-7.69 1.06-.81-.01-1.61-.02-2.45-.02C406 1629 406 1629 405 1628c-.06-1.65-.09-3.29-.12-4.94-.03-.91-.05-1.83-.08-2.77.17-2.71.52-4.91 1.15-7.51 1.19-5.07 1.64-10.1 2.05-15.28.46-5.89 1.16-11.48 2.53-17.23.85-4.11 1.09-8.28 1.41-12.46.63-7.5 1.72-14.57 3.46-21.9.77-3.75.83-7.1.6-10.91h-2c-.33.89-.66 1.77-1 2.68-3.6 9.49-7.99 18.34-12.86 27.23-1.46 2.68-2.89 5.37-4.32 8.06-4.02 7.58-8.12 15.1-12.24 22.62-2.21 4.04-4.41 8.08-6.56 12.16-9.69 18.37-9.69 18.37-14.02 21.25l-9-1c-1.22-2.43-1.37-4.43-1.68-7.14-.13-1.04-.25-2.09-.37-3.16-.13-1.12-.26-2.24-.39-3.39-.27-2.29-.53-4.58-.8-6.87-.13-1.11-.26-2.22-.4-3.37-.99-8.35-2.16-16.68-3.36-25.01-.33-2.35-.67-4.71-1-7.06-.18-1.21-.35-2.42-.54-3.66-1.56-11.42-2.07-22.83-2.46-34.34-4 3-4 3-4.73 6.81A544 544 0 0 1 331 1573l-1.5 6.04c-1.75 7.07-3.6 14.12-5.5 21.15-.89 3.38-1.73 6.76-2.55 10.15-3.93 16.14-3.93 16.14-6.45 18.66q-2.19.045-4.38.06c-.81.01-1.62.03-2.46.04-2.16-.1-2.16-.1-4.16-1.1.35-6.37 1.14-12.16 3.12-18.23 2.9-9.12 5.08-18.5 7.38-27.79 1.12-4.51 2.29-8.99 3.5-13.48 1.3-4.84 2.55-9.69 3.75-14.56a1605 1605 0 0 1 5.83-22.69c.36-1.37.72-2.74 1.08-4.12.51-1.94 1.02-3.89 1.54-5.84.29-1.14.59-2.28.9-3.45.9-2.84.9-2.84 2.9-5.84"/><path fill="#E30613" d="M991.75 1038.875c1.25-.02 2.51-.05 3.8-.07 3.18.18 4.82.51 7.45 2.19.47 1.03.95 2.06 1.43 3.13 3.53 7.62 7.18 15.12 11.2 22.5 3.53 6.54 6.44 13.13 9.1 20.07 1.6 4.18 3.42 8.24 5.27 12.3l2.25 5.07c.34.75.67 1.51 1.02 2.28.24.55.48 1.09.73 1.65 2-1 2-1 3.17-4 2.68-6.81 5.39-13.51 8.83-20 .67-1.33 1.34-2.66 2-4 .16-.31.16-.31.95-1.89.65-1.3 1.3-2.61 1.94-3.91 3.03-6.1 6.21-12.11 9.4-18.13.42-.79.84-1.59 1.27-2.41.41-.77.82-1.55 1.25-2.35 1.15-2.24 2.24-4.5 3.32-6.77 1.87-3.54 1.87-3.54 4.87-5.54h16c3.96 3.96 3.12 13.41 3.65 18.96l.57 5.74c1.02 10.42 1.97 20.81 2.44 31.27.28 6.21 1.06 12.33 1.94 18.48.4 3.55.47 6.99.4 10.55-2.83 2.83-5.05 2.62-9 3-3.44-.93-3.44-.93-6-2-.89-6.47-1.29-12.87-1.52-19.4-.21-4.81-.74-9.47-1.48-14.22-1.15-7.76-1.44-15.42-1.63-23.25-.03-1.38-.07-2.76-.11-4.14-.1-3.33-.18-6.66-.26-9.99-2.81 2.67-4.16 5.14-5.75 8.69-.26.59-.26.59-1.59 3.54-1.11 2.5-2.19 5.01-3.25 7.52-4.2 9.87-9 19.31-14.07 28.75a853 853 0 0 0-4.17 7.9l-1.39 2.65c-.88 1.69-1.76 3.39-2.64 5.08a432 432 0 0 0-2.27 4.32c-.87 1.55-.87 1.55-1.87 2.55h-11c-4.33-5.83-7.03-12.39-10-19-.96-2.08-1.91-4.16-2.87-6.24-.5-1.08-1-2.16-1.5-3.26-1.16-2.48-2.32-4.96-3.5-7.42-3.71-7.75-7.27-15.55-10.63-23.45-.35-.81-.7-1.63-1.06-2.47l-.97-2.3c-.29-.68-.57-1.35-.86-2.04-.61-1.82-.61-1.82-.61-4.82h-3c.02 1.3.05 2.6.07 3.94.37 30.89.37 30.89-2.58 45.63-.45 2.24-.68 4.36-.81 6.64l-.12 2.28-.12 2.33c-.05.79-.09 1.57-.13 2.39-.11 1.93-.21 3.86-.31 5.79-.66 1-1.32 1.99-2 3-5.34.91-7.96 1.14-13-1 .06-.72.11-1.45.17-2.2.26-3.41.51-6.82.77-10.23.09-1.23.18-2.47.28-3.73.6-8.03 1.1-16.05 1.44-24.09.26-2.89.68-5.45 1.3-8.26 1.43-6.81 1.75-13.68 2.17-20.61.08-1.35.17-2.7.26-4.05.21-3.28.41-6.55.61-9.83 4.61-3.45 5.28-3.04 10.75-3.12"/><path fill="#e30613" d="M1585.75 1543.188c5.74 3.61 8.42 7.24 10.25 13.81h4l2-5h2l1-3c8.24-4.92 17.09-9.82 27-8 7.03 2.75 10.97 6.53 14.75 13 3.83 9.7.71 21.85-1.12 31.69-.23 1.24-.45 2.48-.68 3.76-1.23 6.87-2.56 13.71-3.95 20.55-.27 1.39-.55 2.77-.82 4.15-.24 1.25-.49 2.5-.74 3.79-.25 1.27-.5 2.53-.76 3.84-.68 3.22-.68 3.22-1.68 6.22-2.37 1.19-3.87 1.14-6.5 1.13-.79 0-1.59 0-2.41.01-2.09-.14-2.09-.14-4.09-1.14.48-10.78 2.25-20.92 4.53-31.45 6.35-29.75 6.35-29.75.47-39.55-5.85-2.92-8.03-3.39-14-2-5.09 2.36-8.8 5.34-12 10h-2c-.27.83-.54 1.65-.81 2.5-.82 2.4-1.69 4.77-2.63 7.13-3.1 8.23-4.73 16.84-6.1 25.51-.42 2.63-.92 5.24-1.46 7.86-1.16 5.64-2.08 11.32-3 17l-4 4h-9l-2-2c1.54-9.38 3.17-18.74 4.98-28.08l.54-2.78c.35-1.85.71-3.69 1.07-5.53 4.9-25.37 4.9-25.37-.59-33.61-5.77-3.46-5.77-3.46-11-3-9.24 3.47-15.59 10.57-19.81 19.31-4.4 10.66-6.01 21.95-7.8 33.27-.67 4.18-1.38 8.37-2.08 12.55-.25 1.52-.51 3.04-.76 4.57-.18 1.09-.36 2.18-.55 3.3-2.9 1.66-4.92 2.24-8.25 2.13-1.24-.04-2.47-.08-3.75-.13l-3-2c.64-4.67 1.4-9.31 2.27-13.94.12-.65.24-1.29.37-1.95.39-2.08.78-4.16 1.17-6.23.27-1.45.55-2.89.82-4.33 1.67-8.85 3.34-17.7 5.04-26.55.74-3.86 1.47-7.72 2.17-11.58.13-.73.27-1.46.4-2.2.35-1.93.7-3.85 1.05-5.77.73-3.56 1.67-6.97 2.71-10.45h10c2.6 2.61 1 7.32 1 11 3.35-1.78 5.95-3.85 8.69-6.43 7.81-6.91 19.51-11.04 29.06-5.38M2080 1505h11c1 1 1 1 1.09 4.07-.09 3.81-.61 7.05-1.47 10.74-1.3 5.72-2.48 11.44-3.62 17.19-.39 1.96-.79 3.92-1.18 5.88-2.08 10.35-4.15 20.71-6.07 31.09-.74 4-1.51 8-2.28 12-2.62 13.64-4.83 27.24-6.47 41.03-3.73 2.48-5.58 2.15-10 2l-4-2 2-11c-3.85 2.37-6.95 4.9-10.19 8.06-5.79 5.24-12.23 6.92-19.93 7.32-7.67-.75-13.12-2.63-18.38-8.42-7.74-10.1-7.47-22.73-6.19-34.91 2.44-13.76 10.22-27.98 21.69-36.05h2l1-3c4.86-2.62 9.76-4.36 15-6 1.13-.39 2.27-.78 3.44-1.19 6.51-1.48 12.42-1.61 18.56 1.19 1.67.04 3.33.04 5 0 .11-.92.22-1.84.33-2.79 3.8-30.34 3.8-30.34 8.67-35.21m-51.56 62.31c-8.67 11.45-10.52 23.43-9.44 37.69.83 4.47 2.46 7.82 5.88 10.88 3.49 2.37 6.33 4.3 10.62 3.87 9.36-2.01 14.8-7.18 20.5-14.75 6.09-9.76 8.22-20.11 9.47-31.39.54-3.67 1.49-7.05 2.53-10.61.12-3.44.12-3.44 0-6-13.79-11.03-29.98-1.48-39.56 10.31"/><path fill="#E30613" d="M1505 1188c5.35 4.21 9.47 8.84 13.71 14.16 3.29 4.08 6.78 7.96 10.29 11.84v2l3 1c5 6 5 6 5 8l3 1c4.33 5.36 8.62 10.74 12.68 16.31 1.32 1.69 1.32 1.69 2.84 3.16 1.66 1.71 2.72 3.47 3.92 5.53 1.84 3.04 3.44 5.15 6.56 7 1.17-3.5.76-4.95.07-8.54-1.77-11.53-1.28-23.2-1.19-34.84.01-2.39.01-4.78.02-7.17.07-17.42.07-17.42 2.1-19.45 10 0 10 0 13 2v82l-4 4c-10.74 0-10.74 0-16-5-2.22-2.6-4.36-5.27-6.49-7.95-3.51-4.27-7.26-8.29-11.03-12.32-6.48-7.13-6.48-7.13-6.48-9.73l-3-1c-5-6-5-6-5-8l-3-1a521 521 0 0 1-15.02-19.43c-3.86-5.01-3.86-5.01-6.98-6.57.07.71.14 1.42.22 2.15.72 7.78.91 15.47.88 23.27 0 1.23-.01 2.45-.01 3.72q0 5.805-.03 11.61c0 2.64-.01 5.29-.01 7.93-.03 19.3-.03 19.3-3.05 22.32-8 0-8 0-12-3v-83c3-2 3-2 16-2m-408 2c.46.09.46.09 2.77.52 6.96 1.66 11.27 5.44 16.23 10.48 2.78 7.02 3.99 12.85 1 20-4.42 6.51-9.44 10.77-17 13v2c.57.34 1.14.69 1.72 1.04 9.64 6.53 13.87 16.85 16.67 27.87.64 2.2 1.53 4.08 2.61 6.09l-1 5h-11c-4.15-4.44-5.94-7.98-7.44-13.81-2.25-7.93-5.16-15.74-12.56-20.19-6.25-2.05-11.97-2.25-18.5-2.12-.46 0-.46 0-2.78.02-2.24.03-4.48.06-6.72.1l.03 2.87c.04 3.53.06 7.06.08 10.58.01 1.53.02 3.05.04 4.58.03 2.19.04 4.38.05 6.58l.03 4c-.23 3.39-.23 3.39-2.23 7.39h-11l-3-3c0-80 0-80 4-84 16.03-1.34 32.14-2.16 48 1m-36 8c-.23 4.56-.43 9.12-.62 13.69-.07 1.29-.13 2.58-.2 3.92-.05 1.24-.1 2.49-.16 3.78-.05 1.14-.1 2.29-.16 3.47.14 3.18.77 5.29 2.14 8.14 27.41 1.01 27.41 1.01 37.12-6.38 3.54-4.94 5.32-8.46 4.88-14.62-4.83-7.73-8.41-11.42-17.32-13.55-2.24-.27-4.43-.4-6.68-.45-.83-.03-1.65-.05-2.5-.08-14.18-.24-14.18-.24-16.5 2.08"/><path fill="#e30613" d="M874 1545c-.48 11.88-2.97 23.55-5.74 35.09-2.31 9.89-3.2 19.68-3.95 29.79l-.39 5.01c-.32 4.03-.62 8.07-.92 12.11-3 2-3 2-11 2l-3-2c.14-1.75.29-3.5.44-5.25.08-.97.16-1.95.24-2.95.27-2.36.67-4.52 1.32-6.8-4.15 2.13-5.65 4.06-8 8-7.24 6.75-14.54 10.41-24.44 11.31-6.61-.58-12.9-2.39-17.56-7.31-7.69-11.45-7.27-24.9-4.75-38.13 1.3-4.95 3.36-9.36 5.75-13.87.44-.86.89-1.71 1.34-2.59 6.69-12.04 17.58-21.76 30.89-25.8 12.81-3.44 27.47-4.76 39.77 1.39m-43 13c-.98.59-1.97 1.19-2.98 1.8-3.31 2.41-5.32 4.83-7.71 8.14-.74 1.02-1.49 2.04-2.26 3.09-6.66 9.65-10.92 22.09-9.05 33.97 1.93 6.17 3.23 9.81 8.91 13.11 3.44 1.46 6.4 1.15 10.09.89 7.5-3.85 12.37-7.96 17-15 .39-.58.78-1.15 1.18-1.75 8.33-13.42 11.11-31.69 11.82-47.25-.16-.33-.16-.33-1-2-9.87-.55-17.49-.71-26 5"/><path fill="#e30613" d="m2201 1544 2 2c-1.53 9.34-3.16 18.65-4.95 27.94-.08.45-.08.45-.52 2.73-.34 1.79-.69 3.58-1.03 5.37-.51 2.65-1.01 5.3-1.5 7.96l-.55 2.87c-1.35 7.47-1.86 14.8-2.07 22.38l-.12 3.45c-.1 2.77-.18 5.53-.26 8.3-3.83 2.12-6.6 2.31-11 2l-4-2 2-14-6 2c-.16.68-.33 1.36-.5 2.06-2.77 5.43-7.7 9.45-13.31 11.82-9.66 2.99-17.01 2.26-26.19-1.88v-2c-.58-.21-1.16-.41-1.75-.62-4.32-2.65-5.82-5.6-6.98-10.4-1.93-11.57-1.88-23.06 2.73-33.98.29-.72.58-1.45.88-2.2 4.04-9.68 8.76-17.35 17.12-23.8.64-.53 1.28-1.07 1.94-1.62 15.96-12.91 35.14-12.67 54.06-8.38m-52 23c-7.94 9.91-12.92 22.92-11.7 35.78.75 5.23 2.19 10.04 6.3 13.61 4.14 2.79 7.52 3.11 12.4 2.61 8.91-2.67 14.88-9.55 19.2-17.46 7.38-14.37 11.43-31.38 10.8-47.54-2.19-2.19-6.97-1.25-9.96-1.26-11.89.19-19.19 5.61-27.04 14.26m-966-22c-1.03 11.32-3.27 22.49-5.54 33.62-3.3 16.17-4.91 31.89-5.46 48.38-3.79 2.13-6.66 2.17-11 2l-3-2 1-14h-2c-.27.31-.27.31-1.64 1.86-.72.81-1.44 1.62-2.17 2.45-.71.8-1.42 1.6-2.15 2.43-5.93 6.57-12.14 10.3-21.04 11.26-7.99 0-15.19-2.34-21-8-4.89-7.05-5.18-12.95-5.19-21.25l-.03-2.78c-.04-15.39 6.5-30.86 17.22-41.97 2.15-1.67 4.24-3.2 6.5-4.69.56-.37 1.11-.75 1.68-1.14 1.6-1.07 3.21-2.12 4.82-3.17.4-.27.4-.27 2.43-1.63 13.18-7.01 33.12-8.09 46.57-1.37m-52.99 21.41c-8.69 11.33-13.43 24.19-12.01 38.59 1.24 4.95 2.12 8.37 6.19 11.44.59.45 1.18.9 1.79 1.37 2.33 1.37 4.37 1.79 7.02 2.19 1.57-.57 3.13-1.16 4.69-1.75l2.63-.98c9.24-4.37 14.86-13.56 18.49-22.77.76-2.16 1.49-4.32 2.19-6.5.28-.88.57-1.76.86-2.67 1.67-5.66 2.78-11.41 3.83-17.21.13-.72.26-1.45.4-2.2.63-3.68 1.06-7.18.91-10.92-3.04-3.04-6.61-2.34-10.8-2.41-10.44.16-19.63 5.9-26.19 13.82M523 1545c-1.03 11.32-3.27 22.49-5.54 33.62-3.3 16.17-4.91 31.89-5.46 48.38-3.79 2.13-6.66 2.17-11 2l-3-2 1-15c-3.41 2.62-6.03 4.85-8.31 8.5-3.81 5.59-9.79 8.19-16.19 9.88-8.54 1.56-15.93-.41-23.19-5.13-4.38-4.26-7.06-9.35-7.46-15.5-.02-2.67-.04-5.33-.04-8l-.03-2.78c-.04-15.79 6.82-30.23 17.22-41.97 2.13-1.63 4.21-3.15 6.44-4.62.56-.39 1.12-.77 1.69-1.16 1.62-1.09 3.24-2.16 4.87-3.22l2.43-1.64c13.18-7 33.12-8.08 46.57-1.36m-43 13c-.69.42-1.39.85-2.11 1.28-10.46 6.96-16.07 18.31-19.14 30.16-1.7 8.7-1.15 16.37 2.25 24.56 1.05.82 2.12 1.63 3.19 2.44.59.45 1.18.9 1.79 1.37 2.33 1.37 4.37 1.79 7.02 2.19 1.57-.57 3.13-1.16 4.69-1.75l2.63-.98c9.08-4.3 15.26-14.29 19.06-23.33 2.98-8.42 4.72-17.11 6.31-25.88.13-.72.26-1.44.4-2.19.63-3.66 1.06-7.15.91-10.87-3.07-3.07-6.72-2.29-10.95-2.34-6.47.09-10.75 1.8-16.05 5.34"/><path fill="#E30613" d="M1442.438 1048.438c4.78 4.78 6.52 9.92 6.56 16.56-.93 6.5-4.14 10.79-9 15-3.23 1.95-6.52 3.55-10 5l-1 3 6 2c7.58 7.86 10.45 17.01 13.95 27.16 1.05 2.84 1.05 2.84 2.05 3.84v5c-5.41.94-8.8 1.21-14-1-3.29-4.31-4.77-8.21-6.22-13.41-2.01-6.72-4.66-12.71-9.78-17.59-6.33-2.97-11.57-3.38-18.5-3.18-.92.01-1.83.02-2.78.04-6.68.1-6.68.1-7.72 1.14l-1 32c-5 3-5 3-12 3l-3-2v-83c20.04-5.72 49.04-6.65 66.44 6.44m-51.44 1.56v30c2.58 2.58 10.49 1.2 14 1.25.61.02.61.02 3.7.1 8.3.09 14.17-.55 20.4-6.27.46-.6.92-1.21 1.4-1.83.83-1.07 1.65-2.14 2.5-3.25 0-11.98 0-11.98-4-17-5.5-4.24-9.25-5.13-16.08-5.1-.58.01-.58.01-3.51.01-.6.01-.6.01-3.66.03-.61 0-.61 0-3.7.01-9.03.04-9.03.04-11.05 2.05M965 1188h15c4.5 4.5 4.5 4.5 6.15 8.09.36.78.72 1.55 1.1 2.36a429 429 0 0 0 2.32 5.07c1.15 2.49 2.29 4.99 3.43 7.48 1.02 2.21 2.04 4.42 3.06 6.62.24.51.24.51 1.42 3.08 2.14 4.63 4.31 9.24 6.49 13.86 1.62 3.45 3.25 6.9 4.85 10.37.29.62.58 1.25.88 1.89.57 1.24 1.14 2.47 1.71 3.7 1.46 3.16 2.98 6.27 4.58 9.35.16.32.16.32.99 1.91.9 1.74 1.82 3.47 2.73 5.2 1.27 2.98 1.58 4.82 1.29 8.02l-1 1c-11 0-11 0-13.31-2.11-2.78-2.99-4.15-5.47-5.75-9.2-.5-1.14-1-2.27-1.52-3.44-.47-1.08-.94-2.15-1.42-3.25-3.64-7.64-3.64-7.64-5-9h-42c-6.75 13.5-6.75 13.5-9.38 19.25-.5 1.1-1 2.2-1.52 3.33-.36.8-.73 1.6-1.1 2.42-3 2-3 2-13 2l-2-2c.52-4.5 1.67-7.17 4-11 1.33-2.64 2.57-5.32 3.81-8 .18-.38.18-.38 1.07-2.28L936 1246c.54-1.17 1.09-2.34 1.64-3.55 1.98-4.28 3.96-8.57 5.92-12.86 2.38-5.19 4.79-10.35 7.38-15.43 1.41-2.86 2.73-5.76 4.06-8.66 6.4-13.9 6.4-13.9 10-17.5m5 13c-.24.61-.48 1.21-.73 1.84-.71 1.77-1.43 3.54-2.14 5.32-.7 1.76-1.4 3.53-2.08 5.31-2.23 5.8-4.88 11.27-7.78 16.77-1.21 2.63-1.84 4.91-2.27 7.76 3.5 3.5 9.85 2.04 14.71 2.05l4.32.03c2.07.01 4.14.01 6.21.02.63 0 .63 0 3.78.01C987 1240 987 1240 989 1239c-.51-5.32-1.82-9.16-4.31-13.88-.64-1.22-1.27-2.45-1.91-3.68-.59-1.13-1.17-2.27-1.78-3.44-2.53-5.25-4.56-10.36-6-16zm194.75-162.125c1.17.02 2.34.04 3.55.05 3.31.09 4.06 1.16 6.32 3.42 2.58 3.1 4.06 6.75 5.69 10.41.79 1.71 1.58 3.42 2.36 5.13l1.18 2.6c1.7 3.73 3.46 7.43 5.21 11.14q3 6.36 5.97 12.72c3.69 7.9 7.47 15.74 11.43 23.51 2.57 5.25 4.77 10.56 6.54 16.14-3 3-3 3-6.13 3.13-3.74-.12-6.41-.77-9.87-2.13l-.88-1.94c-9.96-21.95-9.96-21.95-13.12-24.06-37 0-37 0-42 3-2.97 6.94-5.94 13.86-9 21-6 4-6 4-13 4-.99-.66-1.98-1.31-3-2 .55-4.53 1.75-7.9 3.87-11.93 2.25-4.29 4.24-8.61 6.13-13.07 1.09-2.4 2.19-4.79 3.31-7.18.31-.66.61-1.31.93-1.98 1.86-3.98 3.78-7.92 5.76-11.84 4.64-9.19 8.95-18.55 13.09-27.99 5.59-12.33 5.59-12.33 15.66-12.13m-2.75 12.12c-.37 1.24-.74 2.48-1.13 3.76-1.63 4.92-3.87 9.42-6.24 14.03-7.79 15.4-7.79 15.4-6.63 21.21h32c.33-1.65.66-3.29 1-5-.21-.23-.21-.23-1.25-1.43-1.97-2.89-3.27-5.8-4.64-9-1.18-2.73-2.42-5.43-3.67-8.13-2.02-4.42-3.8-8.86-5.44-13.44-1.32-.66-2.64-1.31-4-2M1409 1188h16c3.61 3.61 4.91 5.46 6.88 9.94.51 1.16 1.03 2.32 1.56 3.51l1.56 3.55c.95 2.09 1.91 4.17 2.88 6.25.49 1.07.99 2.14 1.5 3.25 2.83 6.1 5.7 12.19 8.57 18.27 1.07 2.27 2.13 4.54 3.2 6.81.35.75.7 1.5 1.07 2.28.66 1.42 1.33 2.84 1.99 4.26 1.9 4.03 3.86 8.03 5.86 12.02 1.26 2.52 2.48 5.06 3.68 7.61.43.9.86 1.8 1.3 2.73.95 2.52.95 2.52.95 6.52-2.52 1.26-4.31 1.1-7.12 1.06-.46 0-.46 0-2.76-.02-2.82-.05-3.76-1.31-5.69-3.23-2.99-3.78-4.58-8.4-6.43-12.81-.77-1.69-1.54-3.38-2.31-5.06-1.69-3.69-1.69-3.69-1.69-5.94h-44l-7 14c-6 12-6 12-8 13-1.66.1-3.33.13-5 .12-.89.01-1.77.01-2.69.01-2.31-.13-2.31-.13-4.31-1.13.27-5.97 2.46-10.26 5.2-15.51 1.99-3.85 3.84-7.75 5.68-11.68.33-.72.67-1.44 1.02-2.18.69-1.47 1.38-2.95 2.07-4.42 2-4.28 4.02-8.56 6.03-12.83 1.67-3.55 3.34-7.11 5-10.67 3.4-7.27 6.86-14.52 10.44-21.71l1.03-2.09c2.41-4.79 2.41-4.79 3.53-5.91m8 12c-3 2-3 2-3.63 4.1-3.41 10.82-8.28 20.78-13.37 30.9 1 4 1 4 2 5 4.08.02 8.15.04 12.23.05l4.15.03c2 .01 3.99.01 5.98.02.6 0 .6 0 3.64.01 3-.11 3-.11 6-1.11-.5-5.65-2.06-9.61-4.75-14.56-3.82-7.29-6.71-14.61-9.25-22.44zm50.164 344.906c.61.36 1.21.72 1.84 1.09v2l3 1c7.09 14.03 3.43 28.02.2 42.61-1.33 6.02-2.46 11.95-3.2 18.08-.78 6.31-2.11 12.25-4 18.31-2.37 1.19-3.87 1.14-6.5 1.13-.8 0-1.59 0-2.41.01-2.09-.14-2.09-.14-4.09-1.14-.21-6.74.51-12.78 1.87-19.37l1.11-5.58c.18-.88.35-1.76.54-2.66.73-3.63 1.39-7.27 2.04-10.92.32-1.8.65-3.6 1-5.4 3.2-17.44 3.2-17.44-.56-25.07-3.94-3.46-6.77-4.86-12-5-7.68 1.86-13.59 6.44-18.32 12.77-1 1.68-1.84 3.46-2.68 5.23-.17.34-.17.34-1.02 2.02-4.68 9.7-6.26 20.12-7.85 30.67-1.18 7.81-2.63 15.56-4.13 23.31-2.89.96-4.7 1.11-7.69 1.07l-2.45-.03c-1.86-.04-1.86-.04-4.86-2.04q.165-.78.33-1.59c2.38-11.64 4.36-23.35 6.17-35.09 1.04-6.77 2.32-13.43 3.81-20.11.88-4.1 1.55-8.22 2.21-12.36 2.07-12.44 2.07-12.44 3.48-13.85h11c.79 3.95 1.09 7.05 1 11 3.74-1.24 5.25-3.19 8-6 9.74-9.45 22.73-10.42 34.16-4.09M1264 1545c6.03 7.66 9.09 15.17 8 25-.69 4.07-1.46 8.12-2.27 12.18-.58 3.02-1.02 5.95-1.29 9.01-.44 3.81-.44 3.81-1.41 6.11-1.25 3.27-1.58 6.29-1.97 9.76-2.13 18.01-2.13 18.01-6.06 21.94h-10l-2-2c1.2-11.69 3.06-22.97 5.82-34.42 2.56-11.05 4.85-22.6 1.18-33.58-7.34-5.24-7.34-5.24-13.5-4.52-8.05 1.67-13.84 8.09-18.5 14.52-7.05 12.18-8.72 26.34-11 40-.29 1.7-.57 3.39-.86 5.09-.72 4.3-1.43 8.61-2.14 12.91-3.01 1.74-5.16 2.25-8.62 2.19-.39-.01-.39-.01-2.36-.02-2.02-.17-2.02-.17-4.02-1.17.75-8.18 2.27-16.19 3.81-24.25.27-1.43.55-2.86.82-4.29 1.18-6.27 2.38-12.54 3.58-18.8.35-1.81.69-3.61 1.04-5.41.16-.84.32-1.67.49-2.54 1.02-5.38 1.95-10.77 2.82-16.18 1.9-10.99 1.9-10.99 3.44-12.53h11c1.16 4.63.7 7.33 0 12 2.72-1.07 3.96-1.95 5.75-4.31 9.7-11.59 25.4-13.64 38.25-6.69"/><path fill="#e30613" d="M1899 1545c3.95 3.38 6.38 7.56 9 12 .53 8.9.08 14.85-5.51 21.9-6.73 7.41-15.06 9.62-24.74 10.79-.91.12-1.82.24-2.76.36-6.98.9-13.96 1.57-20.99 1.95l-1 1c.14 8.05.33 14.86 6 21 6.48 5.06 11.99 5.75 20 5 4.42-1.1 8.71-2.47 13-4l4 1c.16 1.15.16 1.15 1 7-6.91 6.91-18.16 7.9-27.75 8.25-9.43-.17-16.58-2.4-23.38-9.09-6.11-7.04-8.72-16.75-8.94-25.98.2-2.78.58-5.44 1.07-8.18.19-1.06.38-2.13.57-3.22 3.04-14.95 10.92-27.76 23.43-36.78 11.66-7.7 24.37-9.7 37-3m-33.95 14.87c-4.76 5.31-9.17 10.83-10.05 18.13l1 2c7.83.44 14.91.12 22.5-1.75l1.99-.48c4.56-1.21 7.77-3.02 11.51-5.77 2.62-4.78 1.83-8.84 1-14-9.79-8.16-19.39-6.33-27.95 1.87M745 1545c3.93 2.84 6.4 5.75 8.5 10.12.88 6.8 1.08 14.54-2.06 20.82-7.1 8.91-16.11 12.21-27.06 13.68-.88.13-1.76.26-2.66.39-6.12.85-12.21 1.45-18.38 1.78-2.34.21-2.34.21-4.34 1.21.37 6.91 1.24 12.64 4 19 6.49 5.53 11.29 7.55 19.81 7.37 5.06-.59 9.55-2.32 14.19-4.37 4 1 4 1 6 4v5c-4.42 3.32-8.26 4.86-13.75 5.75-.71.12-1.41.24-2.14.37-11.05 1.78-22.03 1.8-31.55-4.93-6.89-5.72-10.37-13.42-11.56-22.19-.99-18.02 3.34-33.61 15.14-47.52 12.31-12.96 29.27-18.99 45.86-10.48m-35.02 15.9c-3.96 4.35-6.58 8.73-8.98 14.1l1 5c11.54.59 25 .68 34.38-7.12 3.24-3.56 3.75-4.85 3.68-9.5-.01-.82-.02-1.64-.02-2.48-.04-1.9-.04-1.9-6.04-7.9-11.86 0-16.02.37-24.02 7.9"/><path fill="#e30613" d="M1382 1545c4.76 3.07 7.07 7.18 8.6 12.57 1.12 6.77-.15 13.52-3.6 19.43-7.61 8.28-15.78 11.45-26.75 12.69-.97.12-1.93.24-2.93.36-6.76.83-13.52 1.53-20.32 1.95-1 1-1 1-1.19 4.38.03 6.47 1.48 12.38 5.44 17.56 6.67 5 12.53 6.08 20.75 5.06 4.1-1.1 8.05-2.46 12-4l4 1c1.76 3.09 2 4.23 2 8-4.42 3.32-8.26 4.86-13.75 5.75-.71.12-1.41.24-2.14.37-10.56 1.7-21.54 2.04-30.92-3.9-7.98-6.55-11.85-14.53-13.07-24.72-.83-17.61 4.36-32.55 15.59-46.07 12.89-13.66 29.1-18.29 46.29-10.43m-35.81 15.88c-2.31 3.29-4.26 6.59-6.19 10.12l-2 3v6c11.09.57 25.18.84 34.34-6.39 2.66-2.61 2.66-2.61 4.66-6.61-.16-1.48-.16-1.48-1-9l-4-2v-2c-8.92-4.46-19.65-.07-25.81 6.88"/><path fill="#e30613" d="M1726.875 1546.75c4.78 5.06 6.39 9.71 6.69 16.69-.26 7.24-2.15 12.31-7.43 17.34-6.75 5.37-13.67 7.62-22.07 8.85-.82.12-1.64.24-2.49.37-7.84 1.14-15.66 1.68-23.58 2-.11 4.65-.2 8.43 1.5 12.81 1.04 2.72 1.5 4.22 1.5 7.19.5.16.5.16 3 1 .42.45.83.91 1.26 1.37 4.59 4.27 9.85 5.16 15.9 5 5.48-.71 10.65-2.55 15.84-4.37 1.32.33 2.65.66 4 1 .17 1.32.17 1.32 1 8-8.49 6.31-20.53 8.22-31 7-7.57-1.33-14.77-2.71-19.61-9.15-1.53-2.25-2.97-4.53-4.39-6.85-.66-.99-1.31-1.98-2-3-1.35-5.23-1.18-10.45-1.18-15.81-.01-.96-.03-1.92-.04-2.91-.03-14.24 5.46-26.21 14.22-37.28h2c.23-.58.46-1.15.69-1.75 4.12-7.05 13.15-10.64 20.71-12.71 9.61-2 17.2.17 25.48 5.21m-34.88 11.25v2c-.28.1-.28.1-1.74.63-3.11 1.89-4.38 4.28-6.26 7.37-.57.95-1.15 1.9-1.74 2.87-1.26 2.13-1.26 2.13-1.26 9.13 11.34.54 24.12.82 33.82-5.97 2.32-2.15 3.71-4.24 5.18-7.03 0-6 0-6-7-14-13 0-13 0-21 5"/><path fill="#E30613" d="m1535 1039 3 2v5c-11.34 11.34-31.97 2.65-48 3v27c7.26.16 7.26.16 44 1 2 2 2 2 2 7-12.77 8.51-30.65 2-46 2v30c8.09.16 8.09.16 49 1 2 2 2 2 2 7l-2 2h-64c-15.54-23.3-2-55.99-2-84 17.74-10.65 41.31-3 62-3m-191 153c.16.66.16.66 1 4l-4 4c-3.47-.46-6.67-.89-10-2-3.37-.28-6.74-.28-10.12-.31l-2.77-.09c-6.46-.06-11.54 1.03-17.11 4.4-4.11 4.49-3 4.4-3 12 5.81 8.13 15.34 9.87 24.56 12.44 9.06 2.54 18.52 5.85 24.44 13.56 3.08 6.03 4.2 9.23 3 16-2.33 6.58-7.19 10.83-13.15 14.23-13.42 6-26.69 6.32-40.85 3.77-1.18-.17-2.35-.34-3.56-.52-7.99-1.18-7.99-1.18-11.44-3.48v-6c3-2 3-2 5-1.6 2.24.45 4.48.91 6.71 1.39 12.04 2.44 24.88 3.93 36.29-1.79 2.67-2.19 4.08-4.12 6-7-1.07-8.57-1.07-8.57-5-13-5.63-3.91-11.41-5.33-18-7-10.57-2.81-20.83-6.26-28-15-2.34-4.13-2.55-8.35-2-13 1.95-6.23 6.7-10.44 12-14 15.07-6.42 34.8-7.68 50-1m-210-4h85l2 2-1 7-34 1c-.7 4.87-1.12 8.96-1.1 13.79a1188 1188 0 0 0 .02 6.05c.02 2.17.02 4.35.03 6.52.01 4.61.03 9.22.05 13.83l.06 16.06c0 2.14.01 4.28.03 6.41 0 1.3 0 2.6.01 3.94 0 1.14.01 2.28.01 3.46-.09 2.51-.37 4.56-1.11 6.94-2.52 1.26-4.31 1.1-7.12 1.06-.46 0-.46 0-2.76-.02-2.12-.04-2.12-.04-5.12-2.04l-1-76-34-1-1-1c0-7 0-7 1-8m221-149c2 2 2 2 2 8-8.5 8.5-23.99 1.66-36 2v75l-2 2h-12c-18.16-18.16-2.66-51.32-3-77l-34-1-1-1v-6c23.86-15.91 57.33-2 86-2"/><path fill="#e30613" d="m1092 1544 2 4-3 7-3 1c-.26-.16-.26-.16-1.55-.99-3.32-1.37-6.12-1.2-9.7-1.13-1.26.01-2.53.03-3.83.05-2.92.07-2.92.07-10.92 6.07-1.08 8.61-1.08 8.61 1.41 13 2.64 3.31 6.17 5.1 9.77 7.25 5.99 3.71 12.86 8.66 14.82 15.75.95 8.01 1.07 15.33-3.52 22.21-6.76 8.17-15.47 12.03-25.82 13.01-7.15.27-13.78-1.41-20.66-3.22-2-3-2-3-1-11l1-1c1.42.12 2.83.24 4.25.38.79.06 1.58.13 2.39.21 2.36.41 2.36.41 4.35 1.43 3.77 1.84 7.92 1.42 12.01.98 3.5-1.5 3.5-1.5 6-3h2l.94-1.88c.68-1.37 1.37-2.74 2.06-4.12.07-1.71.08-3.42.06-5.12-.01-.92-.02-1.83-.02-2.76-.07-3.85-3.41-6.55-6.04-9.12a91 91 0 0 0-4.94-3c-8.32-4.74-12.78-10-16.06-19 .43-6.82 1.91-11.92 5-18h2c.23-.58.45-1.15.69-1.75 3.54-6.07 9.58-7.67 15.97-9.49 8.45-1.92 15.26-.65 23.34 2.24"/><path fill="#e30613" d="M981 1525c1.19 3.58.62 5.29 0 9-.09 3-.06 6 0 9 1.06.06 2.12.12 3.21.18 1.39.09 2.78.17 4.17.26l2.11.12c5.28.33 5.28.33 7.51 1.44-.75 6.62-.75 6.62-3 10-2.8.16-2.8.16-17 1-2.37 6.6-3.9 13.03-5.06 19.94-.33 1.86-.65 3.72-.98 5.59-.15.91-.31 1.82-.47 2.75-.48 2.68-1.02 5.33-1.57 7.99-1.65 8.18-2.64 16.51-.92 24.73l10 1c2 2 2 2 2 10-5.76 3.46-9.4 3.55-16 3-5.32-1.6-9.02-4.24-12-9-2.82-9.17-.28-18.71 1.57-27.83.72-3.65 1.36-7.32 1.99-10.98.83-4.76 1.7-9.51 2.63-14.25.81-4.39.98-8.48.81-12.94l-7-1c-2-3-2-3-1-10 2.64-2.64 7.29-1.63 11-2 .27-.83.54-1.65.81-2.5 3.92-11.53 3.92-11.53 9.23-14.61 2.71-1.23 5.03-1.18 7.96-.89m796 0c1.26 3.63.65 6.27 0 10v8l16 1 2 4c-2.88 5.88-2.88 5.88-4 7-2.81.16-2.81.16-17 1-2.61 7.84-4.38 14.97-5.21 23.13-.47 4.21-1.43 7.87-2.79 11.87-1 5.35-1.12 10.52-1.06 15.94 0 .78.01 1.56.01 2.36.01 1.9.03 3.8.05 5.7 4 3 4 3 10 3l3 5c-2 6-2 6-3.67 6.98-4.85 2.13-10.65 1.8-15.69.33-4.69-2.11-7.43-4.54-9.64-9.31-1.91-7.79-.45-15.26 1-23 .31-1.71.62-3.42.92-5.12 1.32-7.33 2.66-14.65 4.04-21.97.28-1.53.57-3.06.85-4.6.14-.7.27-1.4.41-2.12.6-3.22.84-5.02-.22-8.19l-7-1c-2-5-2-5 0-11l10-1c.45-1.38.91-2.76 1.38-4.19 3.25-9.79 3.25-9.79 8.66-12.92 2.71-1.23 5.03-1.18 7.96-.89m-1166 0c1 4 1 4 0 6.5-1 3.5-1 3.5-1 11.5l17 1 1 1c-1 7-1 7-4 10-1.13.06-2.26.12-3.43.18-1.48.09-2.96.17-4.45.26l-2.26.12c-5.63.33-5.63.33-7.86 1.44-.19 1.1-.39 2.2-.59 3.33-.67 3.85-1.35 7.7-2.03 11.54-.31 1.74-.62 3.48-.92 5.22-.66 3.74-1.34 7.44-2.25 11.13-2.19 9.1-2.54 17.49-2.21 26.78 4.07 2.62 7.16 3.53 12 4 2 6 2 6 1 9-5.84 3.5-11.4 4.13-18.15 2.47-4.51-1.82-7.66-4.01-9.79-8.41-2.23-5.75-1.93-10.05-1.06-16.06.11-.75.21-1.5.32-2.28.33-2.31.69-4.61 1.06-6.91.06-.41.06-.41.39-2.49 1.16-7.17 2.64-14.23 4.23-21.32 1.19-5.65 2.25-11.27 3-17l-9-1-1-1c0-8 0-8 2-10l9-1c2.45-4.36 3.5-8.03 4-13 8-5 8-5 15-5"/><path fill="#e30613" d="M2308 1525c.15 3.7.14 6.59-1.06 10.12-.94 2.88-.94 2.88.06 7.88l16 1c1 1 1 1 1 8-3 3-3 3-19 4-3 3-3 3-3.33 5.79-.97 7.74-2.23 15.29-3.94 22.91-.88 3.98-1.6 7.98-2.3 12-.43 2.3-.43 2.3-.98 4.28-.55 2.47-.55 4.74-.51 7.27.01.89.02 1.78.02 2.7.04 2.05.04 2.05 3.04 6.05l9 1c2 2 2 2 2 9-6.57 4.38-9.43 4.47-17 4-3.71-.85-6.38-2.48-9.31-4.94-7.9-14.32-1.39-34.2 2.31-49.06.58-2.46 1.14-4.91 1.69-7.38.25-1.1.5-2.2.76-3.33.58-3.49.64-6.76.55-10.29l-9-1c-1.35-2.71-1.07-5.01-1-8 3-3 3-3 14-4l2-14c5.42-3.04 8.8-4.52 15-4"/><path fill="#E30613" d="M2264 1541c1.85 1.85 1.12 4.43 1.13 6.89-.19 3.05-.93 5.91-3.13 8.11l-1.98.3c-9.82 1.68-14.18 5.47-20.09 13.36-4.88 8.44-6.81 17.58-8.49 27.09-.43 2.29-.85 4.58-1.27 6.86-.2 1.1-.4 2.19-.61 3.32-.73 4.01-1.51 8.01-2.31 12.01-.22 1.12-.44 2.24-.67 3.4-.58 2.66-.58 2.66-1.58 5.66-2.41 1.2-3.95 1.1-6.62 1.06-.82-.01-1.64-.02-2.48-.02-1.9-.04-1.9-.04-4.9-2.04.97-8.82 2.19-17.45 4.15-26.11 1.62-7.42 2.97-14.9 4.37-22.36.44-2.31.88-4.61 1.33-6.91 1.72-8.84 3.06-17.68 4.15-26.62l1-1h10c3.07 3.07 1 8.65 1 13l2.06-2.06c.46-.46.92-.91 1.4-1.38 1.06-1.08 2.1-2.18 3.11-3.31 5.58-6.03 11.92-10.12 20.43-9.25m-296 0c1.84 1.84 1.12 4.38 1.13 6.82-.18 2.94-1.04 5.46-2.13 8.18-.56.01-1.11.03-1.69.04-6.2.39-10.62 1.8-15.31 5.96-9.69 11-12.75 23.98-15 38-.33 1.88-.66 3.75-1 5.62-.15.85-.31 1.7-.46 2.58-2.77 14.49-2.77 14.49-4.54 19.8-2.37 1.18-3.87 1.13-6.5 1.12-.79.01-1.59.01-2.41.01-2.09-.13-2.09-.13-4.09-1.13-.31-7.81.87-15.03 2.31-22.69.23-1.25.46-2.5.7-3.79 1.32-7.13 2.73-14.23 4.31-21.32 2.48-11.64 4.22-23.39 5.68-35.2l1-1h10c3.07 3.07 1 8.65 1 13l2.06-2.06c.46-.46.92-.91 1.4-1.38 1.06-1.08 2.1-2.18 3.11-3.31 5.58-6.03 11.92-10.12 20.43-9.25m-1032 0c1.12 5.49.79 8.83-1 14-.76.12-1.52.25-2.31.38-9.85 1.96-15.2 5.49-20.85 13.79-6.54 11.07-8.28 23.38-10.34 35.9-.64 3.75-1.39 7.46-2.19 11.18-.21 1-.42 1.99-.63 3.02-1.99 8.04-1.99 8.04-3.68 9.73-1.62.03-3.25.05-4.88.06-.45.01-.45.01-2.74.04-2.38-.1-2.38-.1-4.38-1.1.12-1.6.24-3.21.38-4.81.03-.45.03-.45.21-2.71.58-4.87 1.51-9.66 2.41-14.48.33-1.84.67-3.69 1-5.54.33-1.84.67-3.68 1-5.52.16-.92.33-1.83.5-2.78.8-4.43 1.63-8.86 2.53-13.28.93-4.61 1.76-9.24 2.53-13.88.13-.77.26-1.55.39-2.35.91-5.54 1.6-11.05 2.05-16.65l2-2h10c3.07 3.07 1 8.65 1 13l2.19-2.19L919 1547c.45-.54.91-1.07 1.38-1.62 4.68-3.97 9.66-4.74 15.62-4.38m-256 0c1.83 1.83 1.06 4.33 1.1 6.76-.11 2.49-.56 4.81-1.1 7.24-.8.17-1.59.34-2.41.52-9.93 2.27-15.25 5.08-20.92 13.66-7.68 12.99-9.33 27.43-11.54 42.08-.89 5.75-2.14 11.26-4.13 16.74-2.37 1.18-3.87 1.13-6.5 1.12-.79.01-1.59.01-2.41.01C630 1629 630 1629 628 1628c.34-8.95 1.09-17.42 3.12-26.18 4.31-18.74 6.99-37.82 9.88-56.82l1-1h10c3.07 3.07 1 8.65 1 13l5-5h2c.23-.58.45-1.15.69-1.75 3.96-6.79 11.72-9.81 19.31-9.25m559-353h12c5.48 5.48 2.04 26.15 2.05 33.92.01 4.94.01 9.88.03 14.82.01 4.77.01 9.53.01 14.3.01 1.82.01 3.64.02 5.46v7.63c.01.76.01 1.51.01 2.29 0 3.14-.12 5.58-1.12 8.58-2.52 1.26-4.31 1.1-7.12 1.06-.46 0-.46 0-2.76-.02-2.12-.04-2.12-.04-5.12-3.04 0-83 0-83 2-85"/><path fill="#E30613" d="M1238 1039c9 0 9 0 13 3 0 81 0 81-2 84-9 1-9 1-13-1-1.03-4.23-1.14-8.31-1.11-12.64v-2.27c0-2.48 0-4.95.01-7.42 0-1.72.01-3.44.01-5.16 0-4.52.01-9.03.02-13.55.01-4.61.02-9.22.02-13.83.03-27.11.03-27.11 3.05-31.13m-687 505h12l1 1c-.68 5.96-1.66 11.8-2.81 17.69-.36 1.85-.72 3.71-1.08 5.57-.18.94-.36 1.89-.55 2.87-.9 4.64-1.8 9.29-2.68 13.93-.09.45-.09.45-.52 2.69-.84 4.43-1.65 8.86-2.36 13.31-4.01 24.95-4.01 24.95-7 27.94-10 0-10 0-13-2 2.19-13.07 4.57-26.08 7.21-39.06 1.48-7.31 2.83-14.62 4.1-21.97 3.39-19.67 3.39-19.67 5.69-21.97m469.625-.062c.5 0 .5 0 3.04.03l2.34.03c.66 1.32 1.31 2.64 2 4-.31.84-.61 1.69-.92 2.55-1.11 3.54-1.85 6.99-2.52 10.64-.07.34-.07.34-.39 2.08-.98 5.44-1.84 10.89-2.67 16.36-1.22 7.86-2.75 15.61-4.5 23.37-1.82 8.31-3.55 16.62-5 25-2.53 1.26-4.32 1.1-7.13 1.06-.46 0-.46 0-2.76-.02-2.11-.04-2.11-.04-5.11-2.04.17-.84.34-1.68.51-2.54 2.06-10.22 4.02-20.45 5.96-30.69.53-2.8 1.06-5.6 1.6-8.39.35-1.84.7-3.67 1.05-5.5.17-.89.34-1.78.51-2.69.84-4.37 1.65-8.74 2.43-13.13 1.14-6.38 2.55-12.72 3.94-19.06 2.64-1.32 4.67-1.09 7.62-1.06M1813 1544h11l1 1c-.11 2.21-.24 4.42-.38 6.62-.06 1.23-.13 2.46-.21 3.73-.39 3.51-1.27 6.32-2.41 9.65-.36 2.33-.67 4.66-.94 7-.74 6.11-1.86 12.05-3.2 18.06-1.08 4.85-2 9.74-2.92 14.63-.17.9-.35 1.81-.52 2.74-1.05 5.56-2.07 11.13-3.03 16.71-.39 1.86-.39 1.86-1.39 3.86-2.88.96-4.7 1.11-7.69 1.06-.81-.01-1.61-.02-2.45-.02-1.86-.04-1.86-.04-3.86-2.04 1.22-8.67 2.79-17.23 4.46-25.82 1.35-6.96 2.5-13.94 3.5-20.96.48-3.25 1.03-6.18 2.07-9.3 1.14-3.42 1.48-6.65 1.85-10.23.77-6.32 2.17-11.08 5.12-16.69"/><path fill="#E30613" d="M2128 1508c1.21 6.06-.1 7.04-2.95 12.24-1.59 2.92-3.18 5.84-4.76 8.77l-2.91 5.37c-.47.86-.94 1.73-1.42 2.62-2.36 4.32-4.7 8.28-7.96 12-6 1-6 1-8 0 .53-5.33 1.92-9.64 4.19-14.5.63-1.4 1.27-2.8 1.9-4.2.32-.7.63-1.41.96-2.14 2.06-4.68 3.85-9.47 5.69-14.25 1.26-2.91 1.26-2.91 3.26-4.91 4.04-.63 7.91-1.12 12-1m-1570 1c8 0 8 0 9.38 1.27 1.64 1.75 2.53 3.25 3.56 5.42 1.03 2.16 2.05 4.3 3.2 6.4 2.26 4.16 3.35 7.05 2.86 11.91-.99.16-.99.16-6 1-4.31-3.54-5.97-7.95-8-13h-5c-.29.44-.29.44-1.75 2.69-2.7 4.04-5.16 7.58-9.25 10.31l-7-1v-5l2.11-2.05c3.24-3.24 6.18-6.71 9.14-10.2 5.68-6.68 5.68-6.68 6.75-7.75"/><path fill="#e30613" d="m1726.125 1508.938 3.32.03 2.56.03c.32.99.66 1.98 1 3-.48.53-.95 1.06-1.43 1.61-.62.71-1.25 1.41-1.89 2.14-.61.7-1.23 1.39-1.86 2.11-1.7 1.99-3.28 4.03-4.82 6.14h-2c-.25.59-.49 1.17-.75 1.77-1.46 2.6-3.1 4.07-5.38 5.98-.36.31-.36.31-2.2 1.86-1.67 1.39-1.67 1.39-7.67 1.39-.33-.33-.67-.66-1-1 0-6.93 3.98-10.49 8-16 .59-.81 1.18-1.63 1.79-2.47.52-.71 1.04-1.42 1.58-2.15.46-.63.92-1.27 1.4-1.92 2.63-3.13 5.5-2.56 9.35-2.52"/><path fill="#e30613" d="M1827 1512c5 5 5 5 5 13-4 4-4 4-12 5-5-5-5-5-6-10 3.98-6.31 5.12-8 13-8"/><path fill="#E30613" d="M1031 1513c3 6 3 6 2 12-4 4-4 4-11 5l-5-3c-1.02-8.2-1.02-8.2 3-14 2-1 2-1 11 0"/></svg>