<svg xmlns="http://www.w3.org/2000/svg" viewBox="0 0 900 260" role="img" aria-labelledby="title desc">
<title id="title">Faty Style</title><desc id="desc">Logo couture premium Faty Style</desc>
<defs><linearGradient id="g" x1="0" x2="1"><stop offset="0" stop-color="#f6e7c8"/><stop offset="0.5" stop-color="#c8a97e"/><stop offset="1" stop-color="#8d6a3f"/></linearGradient><filter id="shadow" x="-20%" y="-20%" width="140%" height="140%"><feDropShadow dx="0" dy="8" stdDeviation="8" flood-color="#000" flood-opacity="0.22"/></filter></defs>
<rect width="900" height="260" rx="34" fill="#0b0b0b"/>
<circle cx="127" cy="130" r="78" fill="none" stroke="url(#g)" stroke-width="5"/>
<path d="M86 147c32-55 77-74 105-53 20 15 5 42-21 36-18-4-21-25-5-33" fill="none" stroke="url(#g)" stroke-width="7" stroke-linecap="round"/>
<path d="M126 62v132M102 84h66M105 125h53" stroke="#fafafa" stroke-width="6" stroke-linecap="round" opacity=".9"/>
<path d="M195 79c-23 8-33 22-29 38 5 20 32 19 33 2" fill="none" stroke="#fafafa" stroke-width="4" stroke-linecap="round"/>
<text x="245" y="122" fill="#fafafa" font-family="Great Vibes, Pinyon Script, cursive" font-size="84" filter="url(#shadow)">Faty Style</text>
<text x="251" y="172" fill="url(#g)" font-family="Poppins, Arial, sans-serif" font-size="25" letter-spacing="5">ATELIER HAUTE COUTURE</text>
<text x="253" y="207" fill="#fafafa" opacity=".72" font-family="Poppins, Arial, sans-serif" font-size="19" letter-spacing="3">LIMAY · SUR MESURE · RETOUCHES</text>
</svg>